<svg xmlns="http://www.w3.org/2000/svg" xmlns:xlink="http://www.w3.org/1999/xlink" version="1.1" width="574.8" height="849.1" viewBox="1.9 50.9 574.8 849.1"><g><g transform="translate(467,94)"><g><g>
<g stroke-width="0.5" stroke="#000000" stroke-dasharray="none" fill="#FFFFFF">
    <path d="M98.4,0c0.1,0,0.3,0.1,0.3,0.1c0.1,0,0.2,0.1,0.3,0.2c0.1,0.1,0.2,0.2,0.2,0.3c0.1,0.1,0.1,0.2,0.1,0.4l1.5,55.9c0,0.1,0,0.2,-0.1,0.4c-0.1,0.1,-0.1,0.2,-0.2,0.4c-0.1,0.1,-0.2,0.2,-0.3,0.2c-0.1,0.1,-0.2,0.1,-0.3,0.1H7.9c-0.1,0,-0.2,-0.1,-0.3,-0.1c-0.1,-0.1,-0.2,-0.1,-0.3,-0.2c-0.1,-0.1,-0.2,-0.2,-0.2,-0.4c-0.1,-0.1,-0.1,-0.3,-0.1,-0.4l1.4,-55.8c0,-0.1,0.1,-0.2,0.1,-0.4c0.1,-0.1,0.1,-0.2,0.2,-0.3c0.1,-0.1,0.2,-0.1,0.3,-0.2C9.1,0.1,9.3,0,9.4,0H98.4z"/>
    <path d="M99.7,58.1c0.1,0,0.2,0,0.4,0.1s0.2,0.1,0.3,0.1c0.1,0.1,0.2,0.1,0.2,0.1c0.1,0.1,0.1,0.1,0.1,0.2l7,27.4c-0.1,0.4,-0.8,0.6,-1,0.6H1c-0.2,0,-0.3,-0,-0.4,-0.1c-0.4,-0.1,-0.6,-0.4,-0.6,-0.5l6.8,-27.4c0,-0.1,0.1,-0.1,0.1,-0.2c0.1,-0.1,0.1,-0.1,0.2,-0.1c0.1,-0.1,0.2,-0.1,0.3,-0.1c0.1,-0.1,0.3,-0.1,0.4,-0.1L99.7,58.1L99.7,58.1z"/>
    <path d="M107.7,86.1c-0.1,0.7,-0.1,1.6,-0.2,2.3c-0,0.1,-0.3,0.4,-0.4,0.4c-0.1,0.1,-0.5,0.1,-0.6,0.1l0.2,-2.2C107.3,86.6,107.7,86.3,107.7,86.1z"/>
    <polygon points="106.7,86.6 106.5,88.8 1.1,88.8 1,86.6"/>
    <path d="M1.2,88.8c-0.1,0,-0.3,0,-0.5,-0.1c-0.2,-0.1,-0.5,-0.2,-0.5,-0.2c-0.1,-0.1,-0.1,-0.1,-0.1,-0.2l0,0c-0.1,-0.7,-0.2,-1.5,-0.2,-2.3c0,0.2,0.3,0.5,1,0.6"/>
    <path d="M102.6,73.4c0,0.4,-0.3,0.9,-0.8,0.9H6.6c-0.5,0,-0.8,-0.4,-0.8,-0.9l3.2,-13c0,-0.4,0.3,-0.9,0.8,-0.9h88.7c0.5,0,0.8,0.4,0.8,0.9L102.6,73.4z"/>
    <path d="M9.2,63.7c0.1,0.1,0.1,0.1,0.1,0.1c0.1,0,0.1,0,0.2,0h4.3c0.1,0,0.1,0,0.2,0s0.1,-0.1,0.1,-0.1s0.1,-0.1,0.1,-0.1c0.1,-0.1,0.1,-0.1,0.1,-0.1l0.3,-1.6c0,-0.1,0,-0.1,-0.1,-0.1c-0.1,-0.1,-0.1,-0.1,-0.1,-0.1c-0.1,0,-0.1,-0.1,-0.1,-0.1c-0.1,0,-0.1,0,-0.2,0H10c-0.1,0,-0.1,0,-0.2,0c-0.1,0,-0.1,0.1,-0.1,0.1c-0.1,0.1,-0.1,0.1,-0.1,0.1c-0.1,0.1,-0.1,0.1,-0.1,0.1l-0.3,1.6c0,0.1,0,0.1,0,0.1C9.2,63.6,9.2,63.6,9.2,63.7L9.2,63.7zM14.9,63.7c0.1,0.1,0.1,0.1,0.1,0.1c0.1,0,0.1,0,0.2,0h4.3c0.1,0,0.1,0,0.2,0s0.1,-0.1,0.1,-0.1c0.1,-0.1,0.1,-0.1,0.1,-0.1c0.1,-0.1,0.1,-0.1,0.1,-0.1l0.3,-1.6c0,-0.1,0,-0.1,-0.1,-0.1c-0.1,-0.1,-0.1,-0.1,-0.1,-0.1c-0.1,0,-0.1,-0.1,-0.1,-0.1s-0.1,0,-0.2,0H15.5c-0.1,0,-0.1,0,-0.2,0s-0.1,0.1,-0.1,0.1s-0.1,0.1,-0.1,0.1c-0.1,0.1,-0.1,0.1,-0.1,0.1l-0.3,1.6c0,0.1,0,0.1,0.1,0.1C14.8,63.6,14.8,63.6,14.9,63.7L14.9,63.7zM20.9,61.8c-0.1,0,-0.1,0.1,-0.1,0.1s-0.1,0.1,-0.1,0.1c-0.1,0.1,-0.1,0.1,-0.1,0.1l-0.3,1.6c0,0.1,0,0.1,0.1,0.1c0.1,0.1,0.1,0.1,0.1,0.1c0.1,0.1,0.1,0.1,0.1,0.1c0.1,0,0.1,0,0.2,0h4.3c0.1,0,0.1,0,0.2,0s0.1,-0.1,0.1,-0.1c0.1,-0.1,0.1,-0.1,0.1,-0.1c0.1,-0.1,0.1,-0.1,0.1,-0.1l0.2,-1.6c0,-0.1,0,-0.1,-0.1,-0.1c-0.1,-0.1,-0.1,-0.1,-0.1,-0.1c-0.1,0,-0.1,-0.1,-0.1,-0.1s-0.1,0,-0.2,0h-4.2C21,61.7,21,61.7,20.9,61.8L20.9,61.8zM26.2,63.7c0.1,0,0.1,0,0.2,0h4.3c0.1,0,0.1,0,0.2,0s0.1,-0.1,0.1,-0.1c0.1,-0.1,0.1,-0.1,0.1,-0.1c0.1,-0.1,0.1,-0.1,0.1,-0.1l0.2,-1.6c0,-0.1,0,-0.1,-0.1,-0.1c-0.1,-0.1,-0.1,-0.1,-0.1,-0.1c-0.1,0,-0.1,-0.1,-0.1,-0.1s-0.1,0,-0.2,0h-4.2c-0.1,0,-0.1,0,-0.2,0s-0.1,0.1,-0.1,0.1c-0.1,0.1,-0.1,0.1,-0.1,0.1c-0.1,0.1,-0.1,0.1,-0.1,0.1l-0.2,1.6c0,0.1,0,0.1,0.1,0.1c0.1,0.1,0.1,0.1,0.1,0.1C26.1,63.7,26.2,63.7,26.2,63.7L26.2,63.7zM36.7,61.8c-0.1,-0.1,-0.1,-0.1,-0.1,-0.1s-0.1,0,-0.2,0h-4.2c-0.1,0,-0.1,0,-0.2,0c-0.1,0,-0.1,0.1,-0.1,0.1c-0.1,0,-0.1,0.1,-0.1,0.1c-0.1,0.1,-0.1,0.1,-0.1,0.1l-0.1,1.6c0,0.1,0,0.1,0.1,0.1c0.1,0.1,0.1,0.1,0.1,0.1c0.1,0.1,0.1,0.1,0.1,0.1s0.1,0,0.2,0h4.3c0.1,0,0.1,0,0.2,0c0.1,0,0.1,-0.1,0.1,-0.1c0.1,-0.1,0.1,-0.1,0.1,-0.1c0.1,-0.1,0.1,-0.1,0.1,-0.1l0.1,-1.6c0,-0.1,0,-0.1,-0.1,-0.1C36.8,61.9,36.8,61.8,36.7,61.8L36.7,61.8zM42.4,61.8c-0.1,0,-0.1,-0.1,-0.1,-0.1s-0.1,0,-0.2,0h-4.2c-0.1,0,-0.1,0,-0.2,0c-0.1,0,-0.1,0.1,-0.1,0.1c-0.1,0,-0.1,0.1,-0.1,0.1c-0.1,0.1,-0.1,0.1,-0.1,0.1l-0.1,1.6c0,0.1,0,0.1,0.1,0.1c0.1,0.1,0.1,0.1,0.1,0.1c0.1,0.1,0.1,0.1,0.1,0.1s0.1,0,0.2,0h4.3c0.1,0,0.1,0,0.2,0c0.1,0,0.1,-0.1,0.1,-0.1c0.1,0,0.1,-0.1,0.1,-0.1c0.1,-0.1,0.1,-0.1,0.1,-0.1l0.1,-1.6c0,-0.1,0,-0.1,-0.1,-0.1C42.4,61.9,42.4,61.8,42.4,61.8zM47.9,61.8c-0.1,0,-0.1,-0.1,-0.1,-0.1c-0.1,0,-0.1,0,-0.2,0h-4.2c-0.1,0,-0.1,0,-0.2,0s-0.1,0.1,-0.1,0.1s-0.1,0.1,-0.1,0.1c-0.1,0.1,-0.1,0.1,-0.1,0.1l-0.1,1.6c0,0.1,0,0.1,0.1,0.1c0.1,0.1,0.1,0.1,0.1,0.1c0.1,0.1,0.1,0.1,0.1,0.1c0.1,0,0.1,0,0.2,0h4.3c0.1,0,0.1,0,0.2,0c0.1,0,0.1,-0.1,0.1,-0.1c0.1,-0.1,0.1,-0.1,0.1,-0.1c0.1,-0.1,0.1,-0.1,0.1,-0.1l0.1,-1.6c0,-0.1,0,-0.1,-0.1,-0.1C48,61.9,47.9,61.8,47.9,61.8L47.9,61.8zM53.6,61.9c-0.1,-0.1,-0.1,-0.1,-0.1,-0.1c-0.1,0,-0.1,-0.1,-0.1,-0.1c-0.1,0,-0.1,0,-0.2,0h-4.2c-0.1,0,-0.1,0,-0.2,0c-0.1,0,-0.1,0.1,-0.1,0.1s-0.1,0.1,-0.1,0.1c-0.1,0.1,-0.1,0.1,-0.1,0.1l-0.1,1.6c0,0.1,0,0.1,0.1,0.1c0.1,0.1,0.1,0.1,0.1,0.1c0.1,0.1,0.1,0.1,0.1,0.1c0.1,0,0.1,0,0.2,0h4.3c0.1,0,0.1,0,0.2,0s0.1,-0.1,0.1,-0.1c0.1,-0.1,0.1,-0.1,0.1,-0.1c0.1,-0.1,0.1,-0.1,0.1,-0.1v-1.6C53.6,61.9,53.6,61.9,53.6,61.9L53.6,61.9zM59.2,61.9c-0.1,-0.1,-0.1,-0.1,-0.1,-0.1c-0.1,0,-0.1,-0.1,-0.1,-0.1c-0.1,0,-0.1,0,-0.2,0h-4.2c-0.1,0,-0.1,0,-0.2,0s-0.1,0.1,-0.1,0.1c-0.1,0,-0.1,0.1,-0.1,0.1c-0.1,0.1,-0.1,0.1,-0.1,0.1v1.6c0,0.1,0,0.1,0.1,0.1c0.1,0.1,0.1,0.1,0.1,0.1c0.1,0.1,0.1,0.1,0.1,0.1c0.1,0,0.1,0,0.2,0h4.3c0.1,0,0.1,0,0.2,0s0.1,-0.1,0.1,-0.1c0.1,-0.1,0.1,-0.1,0.1,-0.1c0.1,-0.1,0.1,-0.1,0.1,-0.1l-0.1,-1.6C59.2,61.9,59.2,61.9,59.2,61.9L59.2,61.9zM64.8,61.9c-0.1,-0.1,-0.1,-0.1,-0.1,-0.1c-0.1,0,-0.1,-0.1,-0.1,-0.1c-0.1,0,-0.1,0,-0.2,0h-4.2c-0.1,0,-0.1,0,-0.2,0s-0.1,0.1,-0.1,0.1c-0.1,0,-0.1,0.1,-0.1,0.1c-0.1,0.1,-0.1,0.1,-0.1,0.1l0.1,1.6c0,0.1,0,0.1,0.1,0.1c0.1,0.1,0.1,0.1,0.1,0.1c0.1,0.1,0.1,0.1,0.1,0.1c0.1,0,0.1,0,0.2,0h4.3c0.1,0,0.1,0,0.2,0s0.1,-0.1,0.1,-0.1c0.1,-0.1,0.1,-0.1,0.1,-0.1c0.1,-0.1,0.1,-0.1,0.1,-0.1l-0.1,-1.6C64.8,61.9,64.8,61.9,64.8,61.9L64.8,61.9zM70.4,61.9c-0.1,-0.1,-0.1,-0.1,-0.1,-0.1c-0.1,0,-0.1,-0.1,-0.1,-0.1c-0.1,0,-0.1,0,-0.2,0h-4.2c-0.1,0,-0.1,0,-0.2,0s-0.1,0.1,-0.1,0.1c-0.1,0,-0.1,0.1,-0.1,0.1c-0.1,0.1,-0.1,0.1,-0.1,0.1l0.1,1.6c0,0.1,0,0.1,0.1,0.1c0.1,0.1,0.1,0.1,0.1,0.1c0.1,0.1,0.1,0.1,0.1,0.1c0.1,0,0.1,0,0.2,0h4.3c0.1,0,0.1,0,0.2,0s0.1,-0.1,0.1,-0.1c0.1,-0.1,0.1,-0.1,0.1,-0.1c0.1,-0.1,0.1,-0.1,0.1,-0.1l-0.1,-1.6C70.4,61.9,70.4,61.9,70.4,61.9L70.4,61.9zM76,61.9c-0.1,-0.1,-0.1,-0.1,-0.1,-0.1c-0.1,-0.1,-0.1,-0.1,-0.1,-0.1c-0.1,0,-0.1,0,-0.2,0h-4.2c-0.1,0,-0.1,0,-0.2,0s-0.1,0.1,-0.1,0.1c-0.1,0,-0.1,0.1,-0.1,0.1c-0.1,0.1,-0.1,0.1,-0.1,0.1l0.2,1.6c0,0.1,0.1,0.1,0.1,0.1c0.1,0.1,0.1,0.1,0.1,0.1c0.1,0.1,0.1,0.1,0.1,0.1c0.1,0,0.1,0,0.2,0h4.3c0.1,0,0.1,0,0.2,0s0.1,-0.1,0.1,-0.1c0.1,-0.1,0.1,-0.1,0.1,-0.1c0.1,-0.1,0.1,-0.1,0.1,-0.1l-0.2,-1.6C76,61.9,76,61.9,76,61.9L76,61.9zM81.5,61.9c-0.1,-0.1,-0.1,-0.1,-0.1,-0.1c-0.1,0,-0.1,-0.1,-0.1,-0.1c-0.1,0,-0.1,0,-0.2,0h-4.2c-0.1,0,-0.1,0,-0.2,0s-0.1,0.1,-0.1,0.1s-0.1,0.1,-0.1,0.1c-0.1,0.1,-0.1,0.1,-0.1,0.1l0.2,1.6c0,0.1,0.1,0.1,0.1,0.1c0.1,0.1,0.1,0.1,0.1,0.1c0.1,0.1,0.1,0.1,0.1,0.1c0.1,0,0.1,0,0.2,0h4.3c0.1,0,0.1,0,0.2,0s0.1,-0.1,0.1,-0.1c0.1,-0.1,0.1,-0.1,0.1,-0.1c0.1,-0.1,0.1,-0.1,0.1,-0.1l-0.2,-1.6C81.6,61.9,81.5,61.9,81.5,61.9L81.5,61.9zM92.8,61.9c-0.1,-0.1,-0.1,-0.1,-0.1,-0.1c-0.1,0,-0.1,-0.1,-0.1,-0.1c-0.1,0,-0.1,0,-0.2,0h-9.8c-0.1,0,-0.1,0,-0.2,0s-0.1,0.1,-0.1,0.1c-0.1,0.1,-0.1,0.1,-0.1,0.1c-0.1,0.1,-0.1,0.1,-0.1,0.1l0.2,1.6c0,0.1,0.1,0.1,0.1,0.1c0.1,0.1,0.1,0.1,0.1,0.1c0.1,0.1,0.1,0.1,0.1,0.1c0.1,0,0.1,0,0.2,0h9.9c0.1,0,0.1,0,0.2,0s0.1,-0.1,0.1,-0.1c0.1,-0.1,0.1,-0.1,0.1,-0.1c0.1,-0.1,0.1,-0.1,0.1,-0.1l-0.3,-1.6L92.8,61.9L92.8,61.9zM93.9,63.6c0.1,0.1,0.1,0.1,0.1,0.1c0.1,0.1,0.1,0.1,0.1,0.1c0.1,0,0.1,0,0.2,0h4.3c0.1,0,0.1,0,0.2,0c0.1,0,0.1,-0.1,0.1,-0.1c0.1,-0.1,0.1,-0.1,0.1,-0.1c0,-0.1,0.1,-0.1,0,-0.1l-0.3,-1.6c0,-0.1,-0.1,-0.1,-0.1,-0.1s-0.1,-0.1,-0.1,-0.1c-0.1,-0.1,-0.1,-0.1,-0.1,-0.1c-0.1,0,-0.1,0,-0.2,0h-4.2c-0.1,0,-0.1,0,-0.2,0s-0.1,0.1,-0.1,0.1c-0.1,0.1,-0.1,0.1,-0.1,0.1c-0.1,0.1,-0.1,0.1,-0.1,0.1l0.3,1.6C93.8,63.6,93.8,63.6,93.9,63.6zM21.8,66.1c0.1,0,0.1,-0.1,0.1,-0.1c0.1,-0.1,0.1,-0.1,0.1,-0.1c0.1,-0.1,0.1,-0.1,0.1,-0.1l0.3,-1.7c0,-0.1,0,-0.1,-0.1,-0.1c-0.1,-0.1,-0.1,-0.1,-0.1,-0.1c-0.1,-0.1,-0.1,-0.1,-0.1,-0.1c-0.1,0,-0.1,0,-0.2,0H17.7c-0.1,0,-0.1,0,-0.2,0s-0.1,0.1,-0.1,0.1c-0.1,0.1,-0.1,0.1,-0.1,0.1c-0.1,0.1,-0.1,0.1,-0.1,0.1l-0.3,1.7c0,0.1,0,0.1,0.1,0.1c0.1,0.1,0.1,0.1,0.1,0.1c0.1,0.1,0.1,0.1,0.1,0.1c0.1,0,0.1,0,0.2,0h4.3C21.6,66.1,21.7,66.1,21.8,66.1zM8.6,66.1C8.7,66.1,8.7,66.1,8.8,66.1s0.1,0,0.2,0h6.8c0.1,0,0.1,0,0.2,0c0.1,0,0.1,-0.1,0.1,-0.1c0.1,-0.1,0.1,-0.1,0.1,-0.1c0.1,-0.1,0.1,-0.1,0.1,-0.1l0.3,-1.7c0,-0.1,0,-0.1,-0.1,-0.1c-0.1,-0.1,-0.1,-0.1,-0.1,-0.1c-0.1,-0.1,-0.1,-0.1,-0.1,-0.1c-0.1,0,-0.1,0,-0.2,0H9.4c-0.1,0,-0.1,0,-0.2,0c-0.1,0,-0.1,0.1,-0.1,0.1c-0.1,0.1,-0.1,0.1,-0.1,0.1c-0.1,0.1,-0.1,0.1,-0.1,0.1l-0.4,1.7c0,0.1,0,0.1,0,0.1C8.6,66,8.6,66,8.6,66.1L8.6,66.1zM27.5,66.1c0.1,0,0.1,-0.1,0.1,-0.1c0.1,0,0.1,0,0.1,0c0.1,-0.1,0.1,-0.1,0.1,-0.1l0.2,-1.7c0,-0.1,0,-0.1,-0.1,-0.1c-0.1,-0.1,-0.1,-0.1,-0.1,-0.1c-0.1,-0.1,-0.1,-0.1,-0.1,-0.1s-0.1,0,-0.2,0h-4.3c-0.1,0,-0.1,0,-0.2,0s-0.1,0.1,-0.1,0.1c-0.1,0.1,-0.1,0.1,-0.1,0.1c-0.1,0.1,-0.1,0.1,-0.1,0.1l-0.3,1.7c0,0.1,0,0.1,0.1,0.1c0.1,0.1,0.1,0.1,0.1,0.1c0.1,0.1,0.1,0.1,0.1,0.1c0.1,0,0.1,0,0.2,0h4.3C27.3,66.1,27.5,66.1,27.5,66.1L27.5,66.1zM33.2,66.1c0.1,0,0.1,-0.1,0.1,-0.1h0.1c0.1,-0.1,0.1,-0.1,0.1,-0.1l0.2,-1.7c0,-0.1,0,-0.1,-0.1,-0.1c-0.1,-0.1,-0.1,-0.1,-0.1,-0.1s-0.1,-0.1,-0.1,-0.1s-0.1,0,-0.2,0h-4.3c-0.1,0,-0.1,0,-0.2,0c-0.1,0,-0.1,0.1,-0.1,0.1c-0.1,0.1,-0.1,0.1,-0.1,0.1c-0.1,0.1,-0.1,0.1,-0.1,0.1l-0.2,1.7c0,0.1,0,0.1,0.1,0.1c0.1,0.1,0.1,0.1,0.1,0.1c0.1,0.1,0.1,0.1,0.1,0.1s0.1,0,0.2,0h4.3C33,66.1,33.2,66.1,33.2,66.1L33.2,66.1zM34.5,64.1c-0.1,0,-0.1,0.1,-0.1,0.1c-0.1,0.1,-0.1,0.1,-0.1,0.1c-0.1,0.1,-0.1,0.1,-0.1,0.1l-0.2,1.7c0,0.1,0,0.1,0.1,0.1c0.1,0.1,0.1,0.1,0.1,0.1c0.1,0.1,0.1,0.1,0.1,0.1c0.1,0,0.1,0,0.2,0h4.3c0.1,0,0.1,0,0.2,0c0.1,0,0.1,-0.1,0.1,-0.1c0.1,-0.1,0.1,-0.1,0.1,-0.1s0.1,-0.1,0.1,-0.1l0.1,-1.7c0,-0.1,0,-0.1,-0.1,-0.1c-0.1,-0.1,-0.1,-0.1,-0.1,-0.1c-0.1,-0.1,-0.1,-0.1,-0.1,-0.1c-0.1,0,-0.1,0,-0.2,0h-4.3C34.6,64,34.5,64,34.5,64.1L34.5,64.1zM40.1,64.1c-0.1,0,-0.1,0.1,-0.1,0.1c-0.1,0.1,-0.1,0.1,-0.1,0.1c-0.1,0.1,-0.1,0.1,-0.1,0.1l-0.1,1.7c0,0.1,0,0.1,0.1,0.1c0.1,0.1,0.1,0.1,0.1,0.1c0.1,0.1,0.1,0.1,0.1,0.1c0.1,0,0.1,0,0.2,0h4.3c0.1,0,0.1,0,0.2,0c0.1,0,0.1,-0.1,0.1,-0.1c0.1,-0.1,0.1,-0.1,0.1,-0.1s0.1,-0.1,0.1,-0.1l0.1,-1.7c0,-0.1,0,-0.1,-0.1,-0.1c-0.1,-0.1,-0.1,-0.1,-0.1,-0.1c-0.1,-0.1,-0.1,-0.1,-0.1,-0.1c-0.1,0,-0.1,0,-0.2,0h-4.2C40.2,64,40.2,64,40.1,64.1L40.1,64.1zM45.8,64.1c-0.1,0,-0.1,0.1,-0.1,0.1c-0.1,0.1,-0.1,0.1,-0.1,0.1c-0.1,0.1,-0.1,0.1,-0.1,0.1l-0.1,1.7c0,0.1,0,0.1,0.1,0.1c0.1,0.1,0.1,0.1,0.1,0.1c0.1,0.1,0.1,0.1,0.1,0.1c0.1,0,0.1,0,0.2,0h4.3c0.1,0,0.1,0,0.2,0c0.1,0,0.1,-0.1,0.1,-0.1c0.1,-0.1,0.1,-0.1,0.1,-0.1c0.1,-0.1,0.1,-0.1,0.1,-0.1l0.1,-1.7c0,-0.1,0,-0.1,-0.1,-0.1c-0.1,-0.1,-0.1,-0.1,-0.1,-0.1c-0.1,-0.1,-0.1,-0.1,-0.1,-0.1c-0.1,0,-0.1,0,-0.2,0h-4.3C45.9,64,45.9,64,45.8,64.1L45.8,64.1zM51.4,64.1c-0.1,0,-0.1,0.1,-0.1,0.1c-0.1,0.1,-0.1,0.1,-0.1,0.1c-0.1,0.1,-0.1,0.1,-0.1,0.1l-0.1,1.7c0,0.1,0,0.1,0.1,0.1c0.1,0.1,0.1,0.1,0.1,0.1c0.1,0.1,0.1,0.1,0.1,0.1c0.1,0,0.1,0,0.2,0h4.3c0.1,0,0.1,0,0.2,0s0.1,-0.1,0.1,-0.1c0.1,-0.1,0.1,-0.1,0.1,-0.1c0.1,-0.1,0.1,-0.1,0.1,-0.1l-0.1,-1.7c0,-0.1,0,-0.1,-0.1,-0.1c-0.1,-0.1,-0.1,-0.1,-0.1,-0.1c-0.1,-0.1,-0.1,-0.1,-0.1,-0.1c-0.1,0,-0.1,0,-0.2,0H51.5C51.6,64,51.4,64,51.4,64.1L51.4,64.1zM57.1,64.1c-0.1,0,-0.1,0.1,-0.1,0.1c-0.1,0.1,-0.1,0.1,-0.1,0.1c-0.1,0.1,-0.1,0.1,-0.1,0.1l0.1,1.7c0,0.1,0,0.1,0.1,0.1h0.1c0.1,0.1,0.1,0.1,0.1,0.1c0.1,0,0.1,0,0.2,0H61.5c0.1,0,0.1,0,0.2,0s0.1,-0.1,0.1,-0.1c0.1,-0.1,0.1,-0.1,0.1,-0.1c0.1,-0.1,0.1,-0.1,0.1,-0.1l-0.1,-1.7c0,-0.1,0,-0.1,-0.1,-0.1c-0.1,-0.1,-0.1,-0.1,-0.1,-0.1c-0.1,-0.1,-0.1,-0.1,-0.1,-0.1c-0.1,0,-0.1,0,-0.2,0h-4.3C57.1,64,57.1,64,57.1,64.1L57.1,64.1zM62.7,64.1c-0.1,0,-0.1,0.1,-0.1,0.1c-0.1,0.1,-0.1,0.1,-0.1,0.1c-0.1,0,-0.1,0.1,-0.1,0.1l0.1,1.7c0,0.1,0,0.1,0.1,0.1c0.1,0.1,0.1,0.1,0.1,0.1c0.1,0.1,0.1,0.1,0.1,0.1c0.1,0,0.1,0,0.2,0h4.3c0.1,0,0.1,0,0.2,0c0.1,0,0.1,-0.1,0.1,-0.1c0.1,-0.1,0.1,-0.1,0.1,-0.1c0.1,-0.1,0.1,-0.1,0.1,-0.1l-0.1,-1.7c0,-0.1,0,-0.1,-0.1,-0.1c-0.1,-0.1,-0.1,-0.1,-0.1,-0.1c-0.1,-0.1,-0.1,-0.1,-0.1,-0.1c-0.1,0,-0.1,0,-0.2,0h-4.3C62.8,64,62.8,64,62.7,64.1L62.7,64.1zM68.4,64.1c-0.1,0,-0.1,0.1,-0.1,0.1c-0.1,0.1,-0.1,0.1,-0.1,0.1c-0.1,0.1,-0.1,0.1,-0.1,0.1l0.1,1.7c0,0.1,0,0.1,0.1,0.1c0.1,0.1,0.1,0.1,0.1,0.1c0.1,0.1,0.1,0.1,0.1,0.1c0.1,0,0.1,0,0.2,0h4.3c0.1,0,0.1,0,0.2,0s0.1,-0.1,0.1,-0.1c0.1,-0.1,0.1,-0.1,0.1,-0.1c0.1,-0.1,0.1,-0.1,0.1,-0.1l-0.2,-1.7c0,-0.1,-0.1,-0.1,-0.1,-0.1c-0.1,-0.1,-0.1,-0.1,-0.1,-0.1c-0.1,-0.1,-0.1,-0.1,-0.1,-0.1c-0.1,0,-0.1,0,-0.2,0H68.5C68.5,64,68.4,64,68.4,64.1L68.4,64.1zM74.1,64.1c-0.1,0,-0.1,0.1,-0.1,0.1c-0.1,0.1,-0.1,0.1,-0.1,0.1c-0.1,0,-0.1,0.1,-0.1,0.1l0.2,1.7c0,0.1,0.1,0.1,0.1,0.1c0.1,0.1,0.1,0.1,0.1,0.1c0.1,0.1,0.1,0.1,0.1,0.1c0.1,0,0.1,0,0.2,0H78.7c0.1,0,0.1,0,0.2,0s0.1,-0.1,0.1,-0.1c0.1,-0.1,0.1,-0.1,0.1,-0.1c0.1,0,0.1,-0.1,0.1,-0.1l-0.2,-1.7c0,-0.1,-0.1,-0.1,-0.1,-0.1c-0.1,-0.1,-0.1,-0.1,-0.1,-0.1c-0.1,-0.1,-0.1,-0.1,-0.1,-0.1c-0.1,0,-0.1,0,-0.2,0h-4.3C74.2,64,74.1,64,74.1,64.1L74.1,64.1zM79.7,64.1c-0.1,0,-0.1,0.1,-0.1,0.1c-0.1,0.1,-0.1,0.1,-0.1,0.1c-0.1,0,-0.1,0.1,-0.1,0.1l0.2,1.7c0,0.1,0.1,0.1,0.1,0.1c0.1,0.1,0.1,0.1,0.1,0.1c0.1,0.1,0.1,0.1,0.1,0.1c0.1,0,0.1,0,0.2,0h4.3c0.1,0,0.1,0,0.2,0s0.1,-0.1,0.1,-0.1c0.1,-0.1,0.1,-0.1,0.1,-0.1c0.1,-0.1,0.1,-0.1,0.1,-0.1l-0.3,-1.7c0,-0.1,-0.1,-0.1,-0.1,-0.1c-0.1,-0.1,-0.1,-0.1,-0.1,-0.1c-0.1,-0.1,-0.1,-0.1,-0.1,-0.1c-0.1,0,-0.1,0,-0.2,0h-4.3C79.8,64,79.8,64,79.7,64.1L79.7,64.1zM93,64.1c-0.1,0,-0.1,0,-0.2,0h-7.2c-0.1,0,-0.1,0,-0.2,0s-0.1,0.1,-0.1,0.1c-0.1,0.1,-0.1,0.1,-0.1,0.1c-0.1,0.1,-0.1,0.1,-0.1,0.1l0.2,1.7c0,0.1,0.1,0.1,0.1,0.1c0.1,0.1,0.1,0.1,0.1,0.1c0.1,0.1,0.1,0.1,0.1,0.1c0.1,0,0.1,0,0.2,0h7.3c0.1,0,0.1,0,0.2,0s0.1,-0.1,0.1,-0.1c0.1,-0.1,0.1,-0.1,0.1,-0.1c0.1,-0.1,0.1,-0.1,0.1,-0.1l-0.3,-1.7c0,-0.1,-0.1,-0.1,-0.1,-0.1c-0.1,-0.1,-0.1,-0.1,-0.1,-0.1C93.1,64.1,93.1,64.1,93,64.1L93,64.1zM18.2,68.5c0.1,0.1,0.1,0.1,0.1,0.1c0.1,0,0.1,0,0.2,0h4.3c0.1,0,0.1,0,0.2,0s0.1,-0.1,0.1,-0.1c0.1,-0.1,0.1,-0.1,0.1,-0.1c0.1,-0.1,0.1,-0.1,0.1,-0.1l0.3,-1.7c0,-0.1,0,-0.1,-0.1,-0.1c-0.1,-0.1,-0.1,-0.1,-0.1,-0.1c-0.1,-0.1,-0.1,-0.1,-0.1,-0.1c-0.1,0,-0.1,0,-0.2,0H18.8c-0.1,0,-0.1,0,-0.2,0s-0.1,0.1,-0.1,0.1c-0.1,0.1,-0.1,0.1,-0.1,0.1c-0.1,0.1,-0.1,0.1,-0.1,0.1l-0.3,1.7c0,0.1,0,0.1,0.1,0.1S18.1,68.5,18.2,68.5L18.2,68.5zM8.1,68.5c0.1,0.1,0.1,0.1,0.1,0.1c0.1,0,0.1,0,0.2,0h8.3c0.1,0,0.1,0,0.2,0s0.1,-0.1,0.1,-0.1c0.1,-0.1,0.1,-0.1,0.1,-0.1c0.1,-0.1,0.1,-0.1,0.1,-0.1l0.3,-1.7c0,-0.1,0,-0.1,-0.1,-0.1c-0.1,-0.1,-0.1,-0.1,-0.1,-0.1c-0.1,-0.1,-0.1,-0.1,-0.1,-0.1c-0.1,0,-0.1,0,-0.2,0h-8.3c-0.1,0,-0.1,0,-0.2,0c-0.1,0,-0.1,0.1,-0.1,0.1c-0.1,0.1,-0.1,0.1,-0.1,0.1c-0.1,0.1,-0.1,0.1,-0.1,0.1l-0.4,1.7c0,0.1,0,0.1,0,0.1C8,68.4,8.1,68.5,8.1,68.5L8.1,68.5zM23.9,68.5c0.1,0.1,0.1,0.1,0.1,0.1c0.1,0,0.1,0,0.2,0h4.3c0.1,0,0.1,0,0.2,0c0.1,0,0.1,-0.1,0.1,-0.1c0.1,-0.1,0.1,-0.1,0.1,-0.1c0.1,-0.1,0.1,-0.1,0.1,-0.1l0.2,-1.7c0,-0.1,0,-0.1,-0.1,-0.1c-0.1,-0.1,-0.1,-0.1,-0.1,-0.1c-0.1,-0.1,-0.1,-0.1,-0.1,-0.1s-0.1,0,-0.2,0H24.5c-0.1,0,-0.1,0,-0.2,0c-0.1,0,-0.1,0.1,-0.1,0.1c-0.1,0.1,-0.1,0.1,-0.1,0.1c-0.1,0.1,-0.1,0.1,-0.1,0.1l-0.3,1.7c0,0.1,0,0.1,0.1,0.1C23.9,68.4,23.9,68.5,23.9,68.5zM29.7,68.5c0.1,0.1,0.1,0.1,0.1,0.1c0.1,0,0.1,0,0.2,0h4.3c0.1,0,0.1,0,0.2,0c0.1,0,0.1,-0.1,0.1,-0.1c0.1,-0.1,0.1,-0.1,0.1,-0.1c0.1,-0.1,0.1,-0.1,0.1,-0.1l0.2,-1.7c0,-0.1,0,-0.1,-0.1,-0.1c-0.1,-0.1,-0.1,-0.1,-0.1,-0.1c-0.1,-0.1,-0.1,-0.1,-0.1,-0.1c-0.1,0,-0.1,0,-0.2,0h-4.3c-0.1,0,-0.1,0,-0.2,0c-0.1,0,-0.1,0.1,-0.1,0.1c-0.1,0.1,-0.1,0.1,-0.1,0.1c-0.1,0.1,-0.1,0.1,-0.1,0.1l-0.2,1.7c0,0.1,0,0.1,0.1,0.1C29.6,68.4,29.7,68.5,29.7,68.5L29.7,68.5zM40.3,68.5c0.1,0,0.1,-0.1,0.1,-0.1c0.1,-0.1,0.1,-0.1,0.1,-0.1c0.1,-0.1,0.1,-0.1,0.1,-0.1l0.1,-1.7c0,-0.1,0,-0.1,-0.1,-0.1c-0.1,-0.1,-0.1,-0.1,-0.1,-0.1c-0.1,-0.1,-0.1,-0.1,-0.1,-0.1c-0.1,0,-0.1,0,-0.2,0h-4.3c-0.1,0,-0.1,0,-0.2,0s-0.1,0.1,-0.1,0.1c-0.1,0.1,-0.1,0.1,-0.1,0.1c-0.1,0.1,-0.1,0.1,-0.1,0.1l-0.2,1.7c0,0.1,0,0.1,0.1,0.1c0.1,0.1,0.1,0.1,0.1,0.1c0.1,0.1,0.1,0.1,0.1,0.1c0.1,0,0.1,0,0.2,0h4.4C40.2,68.5,40.3,68.5,40.3,68.5zM46.1,68.5c0.1,0,0.1,-0.1,0.1,-0.1c0.1,-0.1,0.1,-0.1,0.1,-0.1c0.1,-0.1,0.1,-0.1,0.1,-0.1l0.1,-1.7c0,-0.1,0,-0.1,-0.1,-0.1c-0.1,-0.1,-0.1,-0.1,-0.1,-0.1c-0.1,-0.1,-0.1,-0.1,-0.1,-0.1c-0.1,0,-0.1,0,-0.2,0h-4.3c-0.1,0,-0.1,0,-0.2,0c-0.1,0,-0.1,0.1,-0.1,0.1c-0.1,0.1,-0.1,0.1,-0.1,0.1c-0.1,0.1,-0.1,0.1,-0.1,0.1l-0.1,1.7c0,0.1,0,0.1,0.1,0.1c0.1,0.1,0.1,0.1,0.1,0.1c0.1,0.1,0.1,0.1,0.1,0.1c0.1,0,0.1,0,0.2,0H45.9C46,68.5,46,68.5,46.1,68.5L46.1,68.5zM51.9,68.5c0.1,0,0.1,-0.1,0.1,-0.1c0.1,-0.1,0.1,-0.1,0.1,-0.1c0.1,-0.1,0.1,-0.1,0.1,-0.1v-1.7c0,-0.1,0,-0.1,-0.1,-0.1c-0.1,-0.1,-0.1,-0.1,-0.1,-0.1c-0.1,-0.1,-0.1,-0.1,-0.1,-0.1c-0.1,0,-0.1,0,-0.2,0H47.4c-0.1,0,-0.1,0,-0.2,0c-0.1,0,-0.1,0.1,-0.1,0.1c-0.1,0.1,-0.1,0.1,-0.1,0.1c-0.1,0.1,-0.1,0.1,-0.1,0.1l-0.1,1.7c0,0.1,0,0.1,0.1,0.1c0.1,0.1,0.1,0.1,0.1,0.1c0.1,0.1,0.1,0.1,0.1,0.1c0.1,0,0.1,0,0.2,0h4.3C51.8,68.5,51.9,68.5,51.9,68.5L51.9,68.5zM57.7,68.5c0.1,0,0.1,-0.1,0.1,-0.1c0.1,-0.1,0.1,-0.1,0.1,-0.1c0.1,-0.1,0.1,-0.1,0.1,-0.1l-0.1,-1.7c0,-0.1,0,-0.1,-0.1,-0.1c-0.1,-0.1,-0.1,-0.1,-0.1,-0.1c-0.1,-0.1,-0.1,-0.1,-0.1,-0.1c-0.1,0,-0.1,0,-0.2,0h-4.3c-0.1,0,-0.1,0,-0.2,0s-0.1,0.1,-0.1,0.1c-0.1,0.1,-0.1,0.1,-0.1,0.1c-0.1,0.1,-0.1,0.1,-0.1,0.1v1.7c0,0.1,0,0.1,0.1,0.1c0.1,0.1,0.1,0.1,0.1,0.1c0.1,0.1,0.1,0.1,0.1,0.1c0.1,0,0.1,0,0.2,0h4.3C57.6,68.5,57.6,68.5,57.7,68.5L57.7,68.5zM63.4,68.5c0.1,0,0.1,-0.1,0.1,-0.1c0.1,-0.1,0.1,-0.1,0.1,-0.1c0.1,-0.1,0.1,-0.1,0.1,-0.1l-0.1,-1.7c0,-0.1,0,-0.1,-0.1,-0.1c-0.1,-0.1,-0.1,-0.1,-0.1,-0.1c-0.1,-0.1,-0.1,-0.1,-0.1,-0.1c-0.1,0,-0.1,0,-0.2,0h-4.3c-0.1,0,-0.1,0,-0.2,0s-0.1,0.1,-0.1,0.1c-0.1,0.1,-0.1,0.1,-0.1,0.1c-0.1,0.1,-0.1,0.1,-0.1,0.1l0.1,1.7c0,0.1,0,0.1,0.1,0.1c0.1,0.1,0.1,0.1,0.1,0.1c0.1,0.1,0.1,0.1,0.1,0.1c0.1,0,0.1,0,0.2,0h4.3C63.4,68.5,63.4,68.5,63.4,68.5L63.4,68.5zM69.2,68.5c0.1,0,0.1,-0.1,0.1,-0.1c0.1,-0.1,0.1,-0.1,0.1,-0.1c0.1,-0.1,0.1,-0.1,0.1,-0.1l-0.1,-1.7c0,-0.1,0,-0.1,-0.1,-0.1c-0.1,-0.1,-0.1,-0.1,-0.1,-0.1c-0.1,-0.1,-0.1,-0.1,-0.1,-0.1c-0.1,0,-0.1,0,-0.2,0h-4.3c-0.1,0,-0.1,0,-0.2,0s-0.1,0.1,-0.1,0.1c-0.1,0.1,-0.1,0.1,-0.1,0.1c-0.1,0.1,-0.1,0.1,-0.1,0.1l0.1,1.7c0,0.1,0,0.1,0.1,0.1c0.1,0.1,0.1,0.1,0.1,0.1c0.1,0.1,0.1,0.1,0.1,0.1c0.1,0,0.1,0,0.2,0H69.1C69.1,68.5,69.2,68.5,69.2,68.5zM75,68.5c0.1,0,0.1,-0.1,0.1,-0.1c0.1,-0.1,0.1,-0.1,0.1,-0.1c0.1,-0.1,0.1,-0.1,0.1,-0.1l-0.2,-1.7c0,-0.1,-0.1,-0.1,-0.1,-0.1c-0.1,-0.1,-0.1,-0.1,-0.1,-0.1c-0.1,-0.1,-0.1,-0.1,-0.1,-0.1c-0.1,0,-0.1,0,-0.2,0h-4.3c-0.1,0,-0.1,0,-0.2,0s-0.1,0.1,-0.1,0.1c-0.1,0.1,-0.1,0.1,-0.1,0.1c-0.1,0.1,-0.1,0.1,-0.1,0.1l0.1,1.7c0,0.1,0.1,0.1,0.1,0.1c0.1,0.1,0.1,0.1,0.1,0.1c0.1,0.1,0.1,0.1,0.1,0.1c0.1,0,0.1,0,0.2,0h4.3C74.9,68.5,74.9,68.5,75,68.5L75,68.5zM80.8,68.5c0.1,0,0.1,-0.1,0.1,-0.1c0.1,-0.1,0.1,-0.1,0.1,-0.1c0.1,-0.1,0.1,-0.1,0.1,-0.1l-0.2,-1.7c0,-0.1,-0.1,-0.1,-0.1,-0.1c-0.1,-0.1,-0.1,-0.1,-0.1,-0.1c-0.1,-0.1,-0.1,-0.1,-0.1,-0.1c-0.1,0,-0.1,0,-0.2,0h-4.3c-0.1,0,-0.1,0,-0.2,0s-0.1,0.1,-0.1,0.1c-0.1,0.1,-0.1,0.1,-0.1,0.1c-0.1,0.1,-0.1,0.1,-0.1,0.1l0.2,1.7c0,0.1,0.1,0.1,0.1,0.1c0.1,0.1,0.1,0.1,0.1,0.1c0.1,0.1,0.1,0.1,0.1,0.1c0.1,0,0.1,0,0.2,0H80.6C80.7,68.5,80.7,68.5,80.8,68.5L80.8,68.5zM94,68.5c0.1,0,0.1,-0.1,0.1,-0.1c0.1,-0.1,0.1,-0.1,0.1,-0.1c0.1,-0.1,0.1,-0.1,0.1,-0.1l-0.4,-1.7c0,-0.1,-0.1,-0.1,-0.1,-0.1c-0.1,-0.1,-0.1,-0.1,-0.1,-0.1c-0.1,-0.1,-0.1,-0.1,-0.1,-0.1c-0.1,0,-0.1,0,-0.2,0h-11.6c-0.1,0,-0.1,0,-0.2,0s-0.1,0.1,-0.1,0.1c-0.1,0.1,-0.1,0.1,-0.1,0.1c-0.1,0.1,-0.1,0.1,-0.1,0.1l0.2,1.7c0,0.1,0.1,0.1,0.1,0.1c0.1,0.1,0.1,0.1,0.1,0.1c0.1,0.1,0.1,0.1,0.1,0.1c0.1,0,0.1,0,0.2,0h11.6C93.8,68.5,93.9,68.5,94,68.5L94,68.5zM26.6,69c-0.1,-0.1,-0.1,-0.1,-0.1,-0.1c-0.1,-0.1,-0.1,-0.1,-0.1,-0.1s-0.1,0,-0.2,0h-4.3c-0.1,0,-0.1,0,-0.2,0s-0.1,0.1,-0.1,0.1c-0.1,0.1,-0.1,0.1,-0.1,0.1c-0.1,0,-0.1,0.1,-0.1,0.1l-0.3,1.7c0,0.1,0,0.1,0.1,0.1c0.1,0.1,0.1,0.1,0.1,0.1c0.1,0.1,0.1,0.1,0.1,0.1c0.1,0,0.1,0,0.2,0h4.4c0.1,0,0.1,0,0.2,0c0.1,0,0.1,-0.1,0.1,-0.1c0.1,-0.1,0.1,-0.1,0.1,-0.1c0.1,-0.1,0.1,-0.1,0.1,-0.1l0.2,-1.7C26.6,69,26.6,69,26.6,69zM20.4,70.7l0.3,-1.7c0,-0.1,0,-0.1,-0.1,-0.1c-0.1,-0.1,-0.1,-0.1,-0.1,-0.1c-0.1,-0.1,-0.1,-0.1,-0.1,-0.1c-0.1,0,-0.1,0,-0.2,0H8.3c-0.1,0,-0.1,0,-0.2,0s-0.1,0.1,-0.2,0.1c-0.1,0.1,-0.1,0.1,-0.1,0.1c-0.1,0.1,-0.1,0.1,-0.1,0.1l-0.4,1.7c0,0.1,0,0.1,0,0.1c0,0.1,0.1,0.1,0.1,0.1c0.1,0.1,0.1,0.1,0.1,0.1s0.1,0,0.2,0h12c0.1,0,0.1,0,0.2,0s0.1,-0.1,0.2,-0.1c0.1,-0.1,0.1,-0.1,0.1,-0.1C20.3,70.8,20.3,70.7,20.4,70.7L20.4,70.7zM32.3,68.9c-0.1,-0.1,-0.1,-0.1,-0.1,-0.1c-0.1,0,-0.1,0,-0.2,0h-4.4c-0.1,0,-0.1,0,-0.2,0c-0.1,0,-0.1,0.1,-0.1,0.1c-0.1,0.1,-0.1,0.1,-0.1,0.1c-0.1,0.1,-0.1,0.1,-0.1,0.1l-0.2,1.7c0,0.1,0,0.1,0.1,0.1c0.1,0.1,0.1,0.1,0.1,0.1c0.1,0.1,0.1,0.1,0.1,0.1c0.1,0,0.1,0,0.2,0h4.4c0.1,0,0.1,0,0.2,0c0.1,0,0.1,-0.1,0.1,-0.1c0.1,-0.1,0.1,-0.1,0.1,-0.1c0.1,-0.1,0.1,-0.1,0.1,-0.1l0.2,-1.7c0,-0.1,0,-0.1,-0.1,-0.1C32.3,68.9,32.3,68.9,32.3,68.9L32.3,68.9zM25.7,71.4c-0.1,-0.1,-0.1,-0.1,-0.1,-0.1c-0.1,0,-0.1,0,-0.2,0h-4.4c-0.1,0,-0.1,0,-0.2,0c-0.1,0,-0.1,0.1,-0.2,0.1c-0.1,0.1,-0.1,0.1,-0.1,0.1c-0.1,0.1,-0.1,0.1,-0.1,0.1l-0.3,1.8c0,0.1,0,0.1,0.1,0.1c0.1,0.1,0.1,0.1,0.1,0.1c0.1,0.1,0.1,0.1,0.1,0.1c0.1,0,0.1,0,0.2,0h4.4c0.1,0,0.1,0,0.2,0c0.1,0,0.1,-0.1,0.2,-0.1c0.1,-0.1,0.1,-0.1,0.1,-0.1c0.1,-0.1,0.1,-0.1,0.1,-0.1l0.3,-1.8c0,-0.1,0,-0.1,-0.1,-0.1C25.7,71.4,25.7,71.4,25.7,71.4L25.7,71.4zM19.5,71.4c-0.1,-0.1,-0.1,-0.1,-0.1,-0.1c-0.1,0,-0.1,0,-0.2,0H14.8c-0.1,0,-0.1,0,-0.2,0c-0.1,0,-0.1,0.1,-0.2,0.1c-0.1,0.1,-0.1,0.1,-0.1,0.1c-0.1,0.1,-0.1,0.1,-0.1,0.1l-0.3,1.8c0,0.1,0,0.1,0.1,0.1c0.1,0.1,0.1,0.1,0.1,0.1c0.1,0.1,0.1,0.1,0.1,0.1c0.1,0,0.1,0,0.2,0h4.4c0.1,0,0.1,0,0.2,0c0.1,0,0.1,-0.1,0.2,-0.1c0.1,-0.1,0.1,-0.1,0.1,-0.1c0.1,-0.1,0.1,-0.1,0.1,-0.1l0.3,-1.8c0,-0.1,0,-0.1,-0.1,-0.1C19.6,71.4,19.6,71.4,19.5,71.4zM31.8,71.4c-0.1,-0.1,-0.1,-0.1,-0.1,-0.1c-0.1,0,-0.1,0,-0.2,0h-4.4c-0.1,0,-0.1,0,-0.2,0c-0.1,0,-0.1,0.1,-0.1,0.1c-0.1,0.1,-0.1,0.1,-0.1,0.1c-0.1,0.1,-0.1,0.1,-0.1,0.1l-0.2,1.8c0,0.1,0,0.1,0.1,0.1c0.1,0.1,0.1,0.1,0.1,0.1c0.1,0.1,0.1,0.1,0.1,0.1c0.1,0,0.1,0,0.2,0h4.4c0.1,0,0.1,0,0.2,0c0.1,0,0.1,-0.1,0.1,-0.1c0.1,-0.1,0.1,-0.1,0.1,-0.1c0.1,-0.1,0.1,-0.1,0.1,-0.1l0.2,-1.8c0,-0.1,0,-0.1,-0.1,-0.1C31.9,71.4,31.8,71.4,31.8,71.4L31.8,71.4zM32.9,70.9c0.1,0.1,0.1,0.1,0.1,0.1c0.1,0,0.1,0,0.2,0h4.4c0.1,0,0.1,0,0.2,0c0.1,0,0.1,-0.1,0.1,-0.1c0.1,-0.1,0.1,-0.1,0.1,-0.1c0.1,-0.1,0.1,-0.1,0.1,-0.1l0.1,-1.7c0,-0.1,0,-0.1,-0.1,-0.1c-0.1,-0.1,-0.1,-0.1,-0.1,-0.1c-0.1,-0.1,-0.1,-0.1,-0.1,-0.1c-0.1,0,-0.1,0,-0.2,0h-4.3c-0.1,0,-0.1,0,-0.2,0c-0.1,0,-0.1,0.1,-0.1,0.1c-0.1,0.1,-0.1,0.1,-0.1,0.1c-0.1,0.1,-0.1,0.1,-0.1,0.1l-0.2,1.7c0,0.1,0,0.1,0.1,0.1C32.8,70.8,32.9,70.9,32.9,70.9L32.9,70.9zM38.8,70.9c0.1,0.1,0.1,0.1,0.1,0.1c0.1,0,0.1,0,0.2,0h4.4c0.1,0,0.1,0,0.2,0c0.1,0,0.1,-0.1,0.1,-0.1c0.1,-0.1,0.1,-0.1,0.1,-0.1c0.1,-0.1,0.1,-0.1,0.1,-0.1l0.1,-1.7c0,-0.1,0,-0.1,-0.1,-0.1c-0.1,-0.1,-0.1,-0.1,-0.1,-0.1s-0.1,-0.1,-0.1,-0.1c-0.1,0,-0.1,0,-0.2,0h-4.3c-0.1,0,-0.1,0,-0.2,0c-0.1,0,-0.1,0.1,-0.1,0.1c-0.1,0.1,-0.1,0.1,-0.1,0.1c-0.1,0.1,-0.1,0.1,-0.1,0.1l-0.1,1.7c0,0.1,0,0.1,0.1,0.1C38.7,70.8,38.7,70.9,38.8,70.9L38.8,70.9zM44.6,70.9c0.1,0.1,0.1,0.1,0.1,0.1c0.1,0,0.1,0,0.2,0h4.4c0.1,0,0.1,0,0.2,0s0.1,-0.1,0.1,-0.1c0.1,-0.1,0.1,-0.1,0.1,-0.1c0.1,-0.1,0.1,-0.1,0.1,-0.1l0.1,-1.7c0,-0.1,0,-0.1,-0.1,-0.1c-0.1,-0.1,-0.1,-0.1,-0.1,-0.1c-0.1,-0.1,-0.1,-0.1,-0.1,-0.1c-0.1,0,-0.1,0,-0.2,0h-4.3c-0.1,0,-0.1,0,-0.2,0c-0.1,0,-0.1,0.1,-0.1,0.1c-0.1,0.1,-0.1,0.1,-0.1,0.1c-0.1,0.1,-0.1,0.1,-0.1,0.1l-0.1,1.7c0,0.1,0,0.1,0.1,0.1C44.5,70.8,44.5,70.9,44.6,70.9zM50.5,70.9c0.1,0.1,0.1,0.1,0.1,0.1c0.1,0,0.1,0,0.2,0h4.4c0.1,0,0.1,0,0.2,0s0.1,-0.1,0.1,-0.1c0.1,-0.1,0.1,-0.1,0.1,-0.1c0.1,-0.1,0.1,-0.1,0.1,-0.1l-0.1,-1.7c0,-0.1,0,-0.1,-0.1,-0.1c-0.1,-0.1,-0.1,-0.1,-0.1,-0.1c-0.1,-0.1,-0.1,-0.1,-0.1,-0.1c-0.1,0,-0.1,0,-0.2,0h-4.3c-0.1,0,-0.1,0,-0.2,0s-0.1,0.1,-0.1,0.1c-0.1,0.1,-0.1,0.1,-0.1,0.1c-0.1,0.1,-0.1,0.1,-0.1,0.1l-0.1,1.7c0,0.1,0,0.1,0.1,0.1S50.4,70.9,50.5,70.9L50.5,70.9zM56.2,70.8c0.1,0.1,0.1,0.1,0.1,0.1c0,0.1,0.1,0.1,0.1,0.1c0.1,0,0.1,0,0.2,0h4.4c0.1,0,0.1,0,0.2,0s0.1,-0.1,0.1,-0.1c0.1,-0.1,0.1,-0.1,0.1,-0.1c0.1,-0.1,0.1,-0.1,0.1,-0.1l-0.1,-1.7c0,-0.1,0,-0.1,-0.1,-0.1c-0.1,-0.1,-0.1,-0.1,-0.1,-0.1c-0.1,-0.1,-0.1,-0.1,-0.1,-0.1c-0.1,0,-0.1,0,-0.2,0h-4.3c-0.1,0,-0.1,0,-0.2,0s-0.1,0.1,-0.1,0.1c-0.1,0.1,-0.1,0.1,-0.1,0.1c-0.1,0.1,-0.1,0.1,-0.1,0.1l0.1,1.7C56.2,70.7,56.2,70.8,56.2,70.8L56.2,70.8zM62.1,70.8c0.1,0.1,0.1,0.1,0.1,0.1c0.1,0.1,0.1,0.1,0.1,0.1c0.1,0,0.1,0,0.2,0h4.4c0.1,0,0.1,0,0.2,0s0.1,-0.1,0.1,-0.1c0.1,-0.1,0.1,-0.1,0.1,-0.1c0.1,-0.1,0.1,-0.1,0.1,-0.1l-0.1,-1.7c0,-0.1,0,-0.1,-0.1,-0.1c-0.1,-0.1,-0.1,-0.1,-0.1,-0.1c-0.1,-0.1,-0.1,-0.1,-0.1,-0.1c-0.1,0,-0.1,0,-0.2,0h-4.3c-0.1,0,-0.1,0,-0.2,0s-0.1,0.1,-0.1,0.1c-0.1,0.1,-0.1,0.1,-0.1,0.1c-0.1,0.1,-0.1,0.1,-0.1,0.1l0.1,1.7C62,70.7,62,70.8,62.1,70.8L62.1,70.8L62.1,70.8zM67.9,70.8c0.1,0.1,0.1,0.1,0.1,0.1c0.1,0.1,0.1,0.1,0.1,0.1c0.1,0,0.1,0,0.2,0h4.4c0.1,0,0.1,0,0.2,0s0.1,-0.1,0.1,-0.1c0.1,-0.1,0.1,-0.1,0.1,-0.1c0.1,-0.1,0.1,-0.1,0.1,-0.1l-0.2,-1.7c0,-0.1,-0.1,-0.1,-0.1,-0.1c-0.1,-0.1,-0.1,-0.1,-0.1,-0.1c-0.1,-0.1,-0.1,-0.1,-0.1,-0.1c-0.1,0,-0.1,0,-0.2,0h-4.3c-0.1,0,-0.1,0,-0.2,0s-0.1,0.1,-0.1,0.1s-0.1,0.1,-0.1,0.1c-0.1,0.1,-0.1,0.1,-0.1,0.1l0.1,1.7C67.9,70.7,67.9,70.8,67.9,70.8zM73.8,70.8c0.1,0.1,0.1,0.1,0.1,0.1c0.1,0.1,0.1,0.1,0.1,0.1c0.1,0,0.1,0,0.2,0h4.4c0.1,0,0.1,0,0.2,0s0.1,-0.1,0.1,-0.1c0.1,-0.1,0.1,-0.1,0.1,-0.1c0.1,-0.1,0.1,-0.1,0.1,-0.1l-0.2,-1.7c0,-0.1,-0.1,-0.1,-0.1,-0.1c-0.1,-0.1,-0.1,-0.1,-0.1,-0.1c-0.1,-0.1,-0.1,-0.1,-0.1,-0.1c-0.1,0,-0.1,0,-0.2,0h-4.3c-0.1,0,-0.1,0,-0.2,0s-0.1,0.1,-0.1,0.1c-0.1,0.1,-0.1,0.1,-0.1,0.1c-0.1,0.1,-0.1,0.1,-0.1,0.1l0.2,1.7C73.7,70.7,73.7,70.8,73.8,70.8L73.8,70.8zM79.7,70.8c0.1,0.1,0.1,0.1,0.1,0.1c0.1,0.1,0.1,0.1,0.1,0.1c0.1,0,0.1,0,0.2,0h8.1c0.1,0,0.1,0,0.2,0s0.1,-0.1,0.1,-0.1c0.1,0,0.1,-0.1,0.1,-0.1c0.1,-0.1,0.1,-0.1,0.1,-0.1l-0.3,-1.7c0,-0.1,-0.1,-0.1,-0.1,-0.1c-0.1,-0.1,-0.1,-0.1,-0.1,-0.1c-0.1,-0.1,-0.1,-0.1,-0.1,-0.1c-0.1,0,-0.1,0,-0.2,0h-8c-0.1,0,-0.1,0,-0.2,0s-0.1,0.1,-0.1,0.1c-0.1,0.1,-0.1,0.1,-0.1,0.1c-0.1,0.1,-0.1,0.1,-0.1,0.1l0.2,1.7C79.7,70.7,79.7,70.8,79.7,70.8L79.7,70.8zM98.7,64h-4.3c-0.1,0,-0.1,0,-0.2,0s-0.1,0.1,-0.1,0.1c-0.1,0.1,-0.1,0.1,-0.1,0.1c-0.1,0.1,-0.1,0.1,-0.1,0.1l0.3,1.7c0,0.1,0.1,0.1,0.1,0.1c0.1,0.1,0.1,0.1,0.1,0.1c0.1,0.1,0.1,0.1,0.1,0.1c0.1,0,0.1,0,0.2,0h4.3c0.1,0,0.1,0,0.2,0c0.1,0,0.1,-0.1,0.1,-0.1c0.1,-0.1,0.1,-0.1,0.1,-0.1c0,-0.1,0.1,-0.1,0,-0.1l-0.4,-1.7c0,-0.1,-0.1,-0.1,-0.1,-0.1c-0.1,-0.1,-0.1,-0.1,-0.1,-0.1c-0.1,-0.1,-0.1,-0.1,-0.1,-0.1S98.7,64,98.7,64L98.7,64zM99.3,66.4c-0.1,0,-0.1,0,-0.2,0h-4.3c-0.1,0,-0.1,0,-0.2,0c-0.1,0,-0.1,0.1,-0.1,0.1c-0.1,0.1,-0.1,0.1,-0.1,0.1c-0.1,0.1,-0.1,0.1,-0.1,0.1l0.3,1.7c0,0.1,0.1,0.1,0.1,0.1c0.1,0.1,0.1,0.1,0.1,0.1c0.1,0.1,0.1,0.1,0.2,0.1s0.1,0,0.2,0h4.3c0.1,0,0.1,0,0.2,0c0.1,0,0.1,-0.1,0.1,-0.1c0.1,-0.1,0.1,-0.1,0.1,-0.1c0.1,-0.1,0.1,-0.1,0,-0.1l-0.4,-1.7c0,-0.1,-0.1,-0.1,-0.1,-0.1c-0.1,-0.1,-0.1,-0.1,-0.1,-0.1C99.4,66.4,99.3,66.4,99.3,66.4L99.3,66.4zM95.8,70.9H100.2c0.1,0,0.1,0,0.2,0c0.1,0,0.1,-0.1,0.1,-0.1c0.1,-0.1,0.1,-0.1,0.1,-0.1c0.1,-0.1,0.1,-0.1,0,-0.1l-0.4,-1.7c0,-0.1,-0.1,-0.1,-0.1,-0.1c-0.1,-0.1,-0.1,-0.1,-0.1,-0.1c-0.1,-0.1,-0.1,-0.1,-0.2,-0.1c-0.1,0,-0.1,0,-0.2,0H95.3c-0.1,0,-0.1,0,-0.2,0s-0.1,0.1,-0.1,0.1c-0.1,0.1,-0.1,0.1,-0.1,0.1c-0.1,0.1,-0.1,0.1,-0.1,0.1l0.3,1.7c0,0.1,0.1,0.1,0.1,0.1c0.1,0.1,0.1,0.1,0.1,0.1c0.1,0.1,0.1,0.1,0.2,0.1S95.8,70.9,95.8,70.9L95.8,70.9zM101.2,73.3l-0.4,-1.8c0,-0.1,-0.1,-0.1,-0.1,-0.1c-0.1,-0.1,-0.1,-0.1,-0.1,-0.1c-0.1,-0.1,-0.1,-0.1,-0.2,-0.1c-0.1,0,-0.1,0,-0.2,0h-4.4c-0.1,0,-0.1,0,-0.2,0s-0.1,0.1,-0.1,0.1c-0.1,0.1,-0.1,0.1,-0.1,0.1c-0.1,0.1,-0.1,0.1,-0.1,0.1l0.3,1.8c0,0.1,0.1,0.1,0.1,0.1c0.1,0.1,0.1,0.1,0.1,0.1c0.1,0.1,0.1,0.1,0.2,0.1s0.1,0,0.2,0H100.8c0.1,0,0.1,0,0.2,0c0.1,0,0.1,-0.1,0.1,-0.1c0.1,-0.1,0.1,-0.1,0.1,-0.1C101.2,73.3,101.2,73.3,101.2,73.3zM89.7,70.9c0.1,0,0.1,0,0.2,0h4.4c0.1,0,0.1,0,0.2,0s0.1,-0.1,0.1,-0.1c0.1,-0.1,0.1,-0.1,0.1,-0.1c0.1,-0.1,0.1,-0.1,0.1,-0.1l-0.3,-1.7c0,-0.1,-0.1,-0.1,-0.1,-0.1c-0.1,-0.1,-0.1,-0.1,-0.1,-0.1c-0.1,-0.1,-0.1,-0.1,-0.1,-0.1c-0.1,0,-0.1,0,-0.2,0h-4.3c-0.1,0,-0.1,0,-0.2,0s-0.1,0.1,-0.1,0.1c-0.1,0.1,-0.1,0.1,-0.1,0.1c-0.1,0.1,-0.1,0.1,-0.1,0.1l0.3,1.7c0,0.1,0.1,0.1,0.1,0.1c0.1,0.1,0.1,0.1,0.1,0.1C89.5,70.9,89.6,70.9,89.7,70.9zM94.7,71.4c-0.1,-0.1,-0.1,-0.1,-0.1,-0.1c-0.1,-0.1,-0.1,-0.1,-0.2,-0.1c-0.1,0,-0.1,0,-0.2,0h-4.4c-0.1,0,-0.1,0,-0.2,0s-0.1,0.1,-0.1,0.1c-0.1,0.1,-0.1,0.1,-0.1,0.1c-0.1,0.1,-0.1,0.1,-0.1,0.1l0.3,1.8c0,0.1,0.1,0.1,0.1,0.1c0.1,0.1,0.1,0.1,0.1,0.1c0.1,0.1,0.1,0.1,0.2,0.1s0.1,0,0.2,0h4.4c0.1,0,0.1,0,0.2,0s0.1,-0.1,0.1,-0.1c0.1,-0.1,0.1,-0.1,0.1,-0.1c0.1,-0.1,0.1,-0.1,0.1,-0.1l-0.3,-1.8C94.8,71.4,94.7,71.4,94.7,71.4L94.7,71.4zM88.7,71.4c-0.1,-0.1,-0.1,-0.1,-0.1,-0.1c-0.1,-0.1,-0.1,-0.1,-0.2,-0.1s-0.1,0,-0.2,0h-4.4c-0.1,0,-0.1,0,-0.2,0s-0.1,0.1,-0.1,0.1c-0.1,0.1,-0.1,0.1,-0.1,0.1c-0.1,0.1,-0.1,0.1,-0.1,0.1l0.2,1.8c0,0.1,0.1,0.1,0.1,0.1c0.1,0.1,0.1,0.1,0.1,0.1c0.1,0.1,0.1,0.1,0.2,0.1s0.1,0,0.2,0h4.4c0.1,0,0.1,0,0.2,0s0.1,-0.1,0.1,-0.1c0.1,-0.1,0.1,-0.1,0.1,-0.1c0.1,0,0.1,-0.1,0.1,-0.1l-0.3,-1.8C88.7,71.4,88.7,71.4,88.7,71.4L88.7,71.4L88.7,71.4zM75.3,71.4c-0.1,-0.1,-0.1,-0.1,-0.1,-0.1c-0.1,-0.1,-0.1,-0.1,-0.1,-0.1c-0.1,0,-0.1,0,-0.2,0h-4.4c-0.1,0,-0.1,0,-0.2,0s-0.1,0.1,-0.1,0.1c-0.1,0.1,-0.1,0.1,-0.1,0.1c-0.1,0.1,-0.1,0.1,-0.1,0.1l0.2,1.8c0,0.1,0.1,0.1,0.1,0.1c0.1,0.1,0.1,0.1,0.1,0.1c0.1,0.1,0.1,0.1,0.1,0.1c0.1,0,0.1,0,0.2,0H75.1c0.1,0,0.1,0,0.2,0s0.1,-0.1,0.1,-0.1c0.1,-0.1,0.1,-0.1,0.1,-0.1c0.1,-0.1,0.1,-0.1,0.1,-0.1l-0.2,-1.8C75.4,71.4,75.4,71.4,75.3,71.4L75.3,71.4zM69.3,71.4c-0.1,-0.1,-0.1,-0.1,-0.1,-0.1c-0.1,-0.1,-0.1,-0.1,-0.1,-0.1c-0.1,0,-0.1,0,-0.2,0h-4.4c-0.1,0,-0.1,0,-0.2,0s-0.1,0.1,-0.1,0.1c-0.1,0.1,-0.1,0.1,-0.1,0.1c-0.1,0.1,-0.1,0.1,-0.1,0.1l0.1,1.8c0,0.1,0,0.1,0.1,0.1c0.1,0.1,0.1,0.1,0.1,0.1c0.1,0.1,0.1,0.1,0.1,0.1c0.1,0,0.1,0,0.2,0h4.4c0.1,0,0.1,0,0.2,0s0.1,-0.1,0.1,-0.1c0.1,-0.1,0.1,-0.1,0.1,-0.1c0.1,-0.1,0.1,-0.1,0.1,-0.1l-0.1,-1.8C69.3,71.4,69.3,71.4,69.3,71.4L69.3,71.4zM63.1,71.4c-0.1,-0.1,-0.1,-0.1,-0.1,-0.1c-0.1,-0.1,-0.1,-0.1,-0.1,-0.1c-0.1,0,-0.1,0,-0.2,0H33.2c-0.1,0,-0.1,0,-0.2,0c-0.1,0,-0.1,0.1,-0.1,0.1c-0.1,0.1,-0.1,0.1,-0.1,0.1c-0.1,0.1,-0.1,0.1,-0.1,0.1l-0.2,1.8c0,0.1,0,0.1,0.1,0.1c0.1,0.1,0.1,0.1,0.1,0.1c0.1,0.1,0.1,0.1,0.1,0.1c0.1,0,0.1,0,0.2,0h29.9c0.1,0,0.1,0,0.2,0s0.1,-0.1,0.1,-0.1c0.1,-0.1,0.1,-0.1,0.1,-0.1c0.1,-0.1,0.1,-0.1,0.1,-0.1l-0.1,-1.8C63.2,71.4,63.2,71.4,63.1,71.4L63.1,71.4zM13.4,71.4c-0.1,-0.1,-0.1,-0.1,-0.1,-0.1c-0.1,0,-0.1,0,-0.2,0H7.7c-0.1,0,-0.1,0,-0.2,0c-0.1,0,-0.1,0.1,-0.2,0.1c-0.1,0.1,-0.1,0.1,-0.1,0.1c-0.1,0.1,-0.1,0.1,-0.1,0.1l-0.4,1.8c0,0.1,0,0.1,0,0.1c0,0.1,0.1,0.1,0.1,0.1s0.1,0.1,0.1,0.1c0.1,0,0.1,0,0.2,0h5.5c0.1,0,0.1,0,0.2,0s0.1,-0.1,0.2,-0.1c0.1,-0.1,0.1,-0.1,0.1,-0.1c0.1,-0.1,0.1,-0.1,0.1,-0.1l0.3,-1.8c0,-0.1,0,-0.1,-0.1,-0.1C13.5,71.4,13.4,71.4,13.4,71.4L13.4,71.4zM82.5,71.4c-0.1,-0.1,-0.1,-0.1,-0.1,-0.1c-0.1,-0.1,-0.1,-0.1,-0.1,-0.1c-0.1,0,-0.1,0,-0.2,0h-5.5c-0.1,0,-0.1,0,-0.2,0c-0.1,0,-0.1,0.1,-0.1,0.1c-0.1,0.1,-0.1,0.1,-0.1,0.1c-0.1,0.1,-0.1,0.1,-0.1,0.1l0.2,1.8c0,0.1,0.1,0.1,0.1,0.1c0.1,0.1,0.1,0.1,0.1,0.1c0.1,0.1,0.1,0.1,0.1,0.1c0.1,0,0.1,0,0.2,0h5.5c0.1,0,0.1,0,0.2,0s0.1,-0.1,0.1,-0.1c0.1,-0.1,0.1,-0.1,0.1,-0.1c0.1,-0.1,0.1,-0.1,0.1,-0.1l-0.2,-1.8C82.6,71.4,82.5,71.4,82.5,71.4L82.5,71.4zM9.7,61.4c0.1,0,0.1,0.1,0.1,0.1s0.1,0,0.2,0h3.9c0.1,0,0.1,0,0.2,0s0.1,-0.1,0.1,-0.1c0.1,0,0.1,-0.1,0.1,-0.1c0.1,-0.1,0.1,-0.1,0.1,-0.1l0.2,-1c0,-0.1,0,-0.1,0,-0.1c0,-0.1,-0.1,-0.1,-0.1,-0.1c-0.1,0,-0.1,-0.1,-0.1,-0.1c-0.1,0,-0.1,0,-0.2,0H10.3c-0.1,0,-0.1,0,-0.2,0s-0.1,0.1,-0.1,0.1c-0.1,0,-0.1,0.1,-0.1,0.1c-0.1,0.1,-0.1,0.1,-0.1,0.1l-0.2,1c0,0.1,0,0.1,0,0.1C9.7,61.4,9.7,61.4,9.7,61.4L9.7,61.4zM15,61.4c0.1,0,0.1,0.1,0.1,0.1c0.1,0,0.1,0,0.2,0h3.9c0.1,0,0.1,0,0.2,0s0.1,-0.1,0.1,-0.1s0.1,-0.1,0.1,-0.1c0.1,-0.1,0.1,-0.1,0.1,-0.1l0.2,-1c0,-0.1,0,-0.1,-0.1,-0.1c0,-0.1,-0.1,-0.1,-0.1,-0.1c-0.1,0,-0.1,-0.1,-0.1,-0.1c-0.1,0,-0.1,0,-0.2,0H15.5c-0.1,0,-0.1,0,-0.2,0c-0.1,0,-0.1,0.1,-0.1,0.1s-0.1,0.1,-0.1,0.1c-0.1,0.1,-0.1,0.1,-0.1,0.1l-0.2,1c0,0.1,0,0.1,0,0.1C14.9,61.4,14.9,61.4,15,61.4L15,61.4zM20.2,61.4c0.1,0,0.1,0.1,0.1,0.1c0.1,0,0.1,0,0.2,0h3.9c0.1,0,0.1,0,0.2,0s0.1,-0.1,0.1,-0.1s0.1,-0.1,0.1,-0.1c0.1,-0.1,0.1,-0.1,0.1,-0.1l0.1,-1c0,-0.1,0,-0.1,-0.1,-0.1c0,-0.1,-0.1,-0.1,-0.1,-0.1c-0.1,0,-0.1,-0.1,-0.1,-0.1s-0.1,0,-0.2,0h-3.8c-0.1,0,-0.1,0,-0.2,0s-0.1,0.1,-0.1,0.1s-0.1,0.1,-0.1,0.1c-0.1,0.1,-0.1,0.1,-0.1,0.1l-0.2,1c0,0.1,0,0.1,0.1,0.1C20.1,61.4,20.2,61.4,20.2,61.4L20.2,61.4zM25.4,61.4c0.1,0,0.1,0.1,0.1,0.1s0.1,0,0.2,0h3.9c0.1,0,0.1,0,0.2,0c0.1,0,0.1,-0.1,0.1,-0.1c0.1,0,0.1,-0.1,0.1,-0.1c0.1,-0.1,0.1,-0.1,0.1,-0.1l0.1,-1c0,-0.1,0,-0.1,-0.1,-0.1c-0.1,-0.1,-0.1,-0.1,-0.1,-0.1c-0.1,0,-0.1,-0.1,-0.1,-0.1s-0.1,0,-0.2,0h-3.8c-0.1,0,-0.1,0,-0.2,0s-0.1,0.1,-0.1,0.1s-0.1,0.1,-0.1,0.1c-0.1,0.1,-0.1,0.1,-0.1,0.1l-0.1,1c0,0.1,0,0.1,0.1,0.1C25.4,61.4,25.4,61.4,25.4,61.4L25.4,61.4L25.4,61.4zM30.7,61.4c0.1,0,0.1,0.1,0.1,0.1s0.1,0,0.2,0h3.9c0.1,0,0.1,0,0.2,0c0.1,0,0.1,-0.1,0.1,-0.1s0.1,-0.1,0.1,-0.1c0.1,-0.1,0.1,-0.1,0.1,-0.1l0.1,-1c0,-0.1,0,-0.1,-0.1,-0.1c-0.1,-0.1,-0.1,-0.1,-0.1,-0.1c-0.1,0,-0.1,-0.1,-0.1,-0.1s-0.1,0,-0.2,0h-3.8c-0.1,0,-0.1,0,-0.2,0c-0.1,0,-0.1,0.1,-0.1,0.1c-0.1,0,-0.1,0.1,-0.1,0.1c-0.1,0.1,-0.1,0.1,-0.1,0.1l-0.1,1c0,0.1,0,0.1,0.1,0.1C30.7,61.4,30.7,61.4,30.7,61.4L30.7,61.4zM36,61.4c0.1,0,0.1,0.1,0.1,0.1s0.1,0,0.2,0h3.9c0.1,0,0.1,0,0.2,0c0.1,0,0.1,-0.1,0.1,-0.1c0.1,0,0.1,-0.1,0.1,-0.1c0.1,-0.1,0.1,-0.1,0.1,-0.1l0.1,-1c0,-0.1,0,-0.1,-0.1,-0.1c-0.1,-0.1,-0.1,-0.1,-0.1,-0.1c-0.1,0,-0.1,-0.1,-0.1,-0.1s-0.1,0,-0.2,0h-3.8c-0.1,0,-0.1,0,-0.2,0c-0.1,0,-0.1,0.1,-0.1,0.1c-0.1,0,-0.1,0.1,-0.1,0.1c-0.1,0.1,-0.1,0.1,-0.1,0.1l-0.1,1c0,0.1,0,0.1,0.1,0.1C35.9,61.4,36,61.4,36,61.4L36,61.4zM41.3,61.4c0.1,0,0.1,0.1,0.1,0.1s0.1,0,0.2,0H45.5c0.1,0,0.1,0,0.2,0c0.1,0,0.1,-0.1,0.1,-0.1c0.1,0,0.1,-0.1,0.1,-0.1c0.1,-0.1,0.1,-0.1,0.1,-0.1l0.1,-1c0,-0.1,0,-0.1,-0.1,-0.1c-0.1,-0.1,-0.1,-0.1,-0.1,-0.1c-0.1,0,-0.1,-0.1,-0.1,-0.1c-0.1,0,-0.1,0,-0.2,0h-3.8c-0.1,0,-0.1,0,-0.2,0c-0.1,0,-0.1,0.1,-0.1,0.1c-0.1,0,-0.1,0.1,-0.1,0.1c-0.1,0.1,-0.1,0.1,-0.1,0.1l-0.1,1c0,0.1,0,0.1,0.1,0.1C41.2,61.4,41.2,61.4,41.3,61.4L41.3,61.4zM46.5,61.4c0.1,0,0.1,0.1,0.1,0.1s0.1,0,0.2,0h3.9c0.1,0,0.1,0,0.2,0s0.1,-0.1,0.1,-0.1c0.1,0,0.1,-0.1,0.1,-0.1c0.1,-0.1,0.1,-0.1,0.1,-0.1v-1c0,-0.1,0,-0.1,-0.1,-0.1c-0.1,-0.1,-0.1,-0.1,-0.1,-0.1c-0.1,0,-0.1,-0.1,-0.1,-0.1s-0.1,0,-0.2,0h-3.8c-0.1,0,-0.1,0,-0.2,0s-0.1,0.1,-0.1,0.1c-0.1,0,-0.1,0.1,-0.1,0.1c-0.1,0.1,-0.1,0.1,-0.1,0.1l-0.1,1c0,0.1,0,0.1,0.1,0.1C46.4,61.4,46.4,61.4,46.5,61.4zM51.8,61.4c0.1,0,0.1,0.1,0.1,0.1s0.1,0,0.2,0h3.9c0.1,0,0.1,0,0.2,0s0.1,-0.1,0.1,-0.1c0.1,0,0.1,-0.1,0.1,-0.1c0.1,-0.1,0.1,-0.1,0.1,-0.1v-1c0,-0.1,0,-0.1,-0.1,-0.1c-0.1,-0.1,-0.1,-0.1,-0.1,-0.1c-0.1,0,-0.1,-0.1,-0.1,-0.1c-0.1,0,-0.1,0,-0.2,0h-3.8c-0.1,0,-0.1,0,-0.2,0s-0.1,0.1,-0.1,0.1s-0.1,0.1,-0.1,0.1c-0.1,0.1,-0.1,0.1,-0.1,0.1v1c0,0.1,0,0.1,0.1,0.1C51.7,61.4,51.7,61.4,51.8,61.4L51.8,61.4zM57,61.4c0.1,0.1,0.1,0.1,0.1,0.1s0.1,0.1,0.1,0.1s0.1,0,0.2,0h3.9c0.1,0,0.1,0,0.2,0s0.1,-0.1,0.1,-0.1c0.1,0,0.1,-0.1,0.1,-0.1c0.1,-0.1,0.1,-0.1,0.1,-0.1l-0.1,-1c0,-0.1,0,-0.1,-0.1,-0.1c-0.1,-0.1,-0.1,-0.1,-0.1,-0.1s-0.1,-0.1,-0.1,-0.1s-0.1,0,-0.2,0h-3.8c-0.1,0,-0.1,0,-0.2,0s-0.1,0.1,-0.1,0.1c-0.1,0,-0.1,0.1,-0.1,0.1c-0.1,0.1,-0.1,0.1,-0.1,0.1l0.1,1C56.9,61.4,56.9,61.4,57,61.4L57,61.4zM62.2,61.4c0.1,0.1,0.1,0.1,0.1,0.1c0.1,0,0.1,0.1,0.1,0.1s0.1,0,0.2,0h3.9c0.1,0,0.1,0,0.2,0s0.1,-0.1,0.1,-0.1l0.1,-0.1c0.1,-0.1,0.1,-0.1,0.1,-0.1l-0.1,-1c0,-0.1,0,-0.1,-0.1,-0.1c-0.1,-0.1,-0.1,-0.1,-0.1,-0.1s-0.1,-0.1,-0.1,-0.1c-0.1,0,-0.1,0,-0.2,0h-3.8c-0.1,0,-0.1,0,-0.2,0s-0.1,0.1,-0.1,0.1c-0.1,0,-0.1,0.1,-0.1,0.1c-0.1,0.1,-0.1,0.1,-0.1,0.1l0.1,1C62.2,61.4,62.2,61.4,62.2,61.4L62.2,61.4zM67.4,61.4c0.1,0.1,0.1,0.1,0.1,0.1c0.1,0,0.1,0.1,0.1,0.1c0.1,0,0.1,0,0.2,0h3.9c0.1,0,0.1,0,0.2,0s0.1,-0.1,0.1,-0.1c0.1,0,0.1,-0.1,0.1,-0.1c0.1,-0.1,0.1,-0.1,0.1,-0.1l-0.1,-1c0,-0.1,0,-0.1,-0.1,-0.1c-0.1,-0.1,-0.1,-0.1,-0.1,-0.1c-0.1,0,-0.1,-0.1,-0.1,-0.1s-0.1,0,-0.2,0H67.7c-0.1,0,-0.1,0,-0.2,0s-0.1,0.1,-0.1,0.1c-0.1,0,-0.1,0.1,-0.1,0.1c-0.1,0.1,-0.1,0.1,-0.1,0.1l0.1,1C67.4,61.4,67.4,61.4,67.4,61.4L67.4,61.4zM72.7,61.4c0.1,0.1,0.1,0.1,0.1,0.1s0.1,0.1,0.1,0.1s0.1,0,0.2,0h3.9c0.1,0,0.1,0,0.2,0s0.1,-0.1,0.1,-0.1l0.1,-0.1c0.1,-0.1,0.1,-0.1,0.1,-0.1l-0.1,-1c0,-0.1,-0.1,-0.1,-0.1,-0.1c-0.1,-0.1,-0.1,-0.1,-0.1,-0.1c-0.1,0,-0.1,-0.1,-0.1,-0.1s-0.1,0,-0.2,0h-3.8c-0.1,0,-0.1,0,-0.2,0s-0.1,0.1,-0.1,0.1l-0.1,0.1c-0.1,0.1,-0.1,0.1,-0.1,0.1l0.1,1C72.7,61.4,72.7,61.4,72.7,61.4L72.7,61.4zM78,61.4c0.1,0.1,0.1,0.1,0.1,0.1c0.1,0,0.1,0.1,0.1,0.1c0.1,0,0.1,0,0.2,0h3.9c0.1,0,0.1,0,0.2,0s0.1,-0.1,0.1,-0.1c0.1,0,0.1,-0.1,0.1,-0.1c0,-0.1,0.1,-0.1,0.1,-0.1l-0.2,-1c0,-0.1,-0.1,-0.1,-0.1,-0.1c-0.1,-0.1,-0.1,-0.1,-0.1,-0.1c-0.1,0,-0.1,-0.1,-0.1,-0.1c-0.1,0,-0.1,0,-0.2,0h-3.8c-0.1,0,-0.1,0,-0.2,0s-0.1,0.1,-0.1,0.1c-0.1,0,-0.1,0.1,-0.1,0.1c-0.1,0.1,-0.1,0.1,-0.1,0.1l0.1,1C77.9,61.4,78,61.4,78,61.4L78,61.4zM83.2,61.4c0.1,0.1,0.1,0.1,0.1,0.1c0.1,0,0.1,0.1,0.1,0.1s0.1,0,0.2,0H87.6c0.1,0,0.1,0,0.2,0s0.1,-0.1,0.1,-0.1c0.1,0,0.1,-0.1,0.1,-0.1c0,-0.1,0.1,-0.1,0.1,-0.1l-0.2,-1c0,-0.1,-0.1,-0.1,-0.1,-0.1c-0.1,-0.1,-0.1,-0.1,-0.1,-0.1c-0.1,0,-0.1,-0.1,-0.1,-0.1s-0.1,0,-0.2,0h-3.8c-0.1,0,-0.1,0,-0.2,0s-0.1,0.1,-0.1,0.1c-0.1,0,-0.1,0.1,-0.1,0.1c0,0.1,-0.1,0.1,-0.1,0.1l0.2,1C83.2,61.4,83.2,61.4,83.2,61.4L83.2,61.4zM88.5,61.4c0.1,0.1,0.1,0.1,0.1,0.1c0.1,0,0.1,0.1,0.1,0.1c0.1,0,0.1,0,0.2,0h3.9c0.1,0,0.1,0,0.2,0s0.1,-0.1,0.1,-0.1l0.1,-0.1c0,-0.1,0.1,-0.1,0,-0.1l-0.2,-1c0,-0.1,-0.1,-0.1,-0.1,-0.1c-0.1,-0.1,-0.1,-0.1,-0.1,-0.1c-0.1,0,-0.1,-0.1,-0.1,-0.1s-0.1,0,-0.2,0h-3.8c-0.1,0,-0.1,0,-0.2,0s-0.1,0.1,-0.1,0.1c-0.1,0,-0.1,0.1,-0.1,0.1c-0.1,0.1,-0.1,0.1,-0.1,0.1l0.2,1C88.5,61.4,88.5,61.4,88.5,61.4L88.5,61.4zM93.7,61.4c0.1,0.1,0.1,0.1,0.1,0.1c0.1,0,0.1,0.1,0.1,0.1s0.1,0,0.2,0h3.9c0.1,0,0.1,0,0.2,0c0.1,0,0.1,-0.1,0.1,-0.1c0.1,0,0.1,-0.1,0.1,-0.1c0,-0.1,0.1,-0.1,0,-0.1l-0.2,-1c0,-0.1,-0.1,-0.1,-0.1,-0.1c-0.1,-0.1,-0.1,-0.1,-0.1,-0.1c-0.1,0,-0.1,-0.1,-0.1,-0.1s-0.1,0,-0.2,0h-3.9c-0.1,0,-0.1,0,-0.2,0s-0.1,0.1,-0.1,0.1l-0.1,0.1c-0.1,0.1,-0.1,0.1,-0.1,0.1l0.2,1C93.7,61.4,93.7,61.4,93.7,61.4L93.7,61.4z"/>
    <polygon points="98,55.3 9.7,55.3 10.9,3.1 97,3.1"/>
    <path d="M65.8,77.5c0,-0.1,-0.1,-0.2,-0.2,-0.3c-0.1,-0.1,-0.2,-0.2,-0.3,-0.2c-0.2,-0.1,-0.3,-0.1,-0.5,-0.2c-0.2,-0.1,-0.4,-0.1,-0.6,-0.1H41.8c-0.2,0,-0.5,0.1,-0.6,0.1c-0.2,0.1,-0.4,0.1,-0.6,0.2c-0.2,0.1,-0.3,0.2,-0.4,0.2c-0.1,0.1,-0.2,0.2,-0.2,0.3l-0.3,3.8h26.4L65.8,77.5z"/>
    <path d="M64,76.7L64,76.7L64,76.7z"/>
    <path d="M66,81.4L66,81.4H39.6l-0.2,1.8c0,0.1,0.1,0.2,0.1,0.4c0.1,0.1,0.2,0.2,0.3,0.2c0.2,0.1,0.3,0.1,0.5,0.2s0.4,0.1,0.6,0.1h23.3c0.2,0,0.5,-0.1,0.7,-0.1c0.2,-0.1,0.4,-0.1,0.5,-0.2c0.2,-0.1,0.3,-0.2,0.3,-0.2c0.1,-0.1,0.1,-0.2,0.1,-0.4L66,81.4z"/>
</g>
<rect x="13.6" y="9.9" width="80.3" height="40.6" fill="none"/>
<path fill="none" d="M100.8,58.6c0,-0.1,-0.1,-0.1,-0.1,-0.2c-0.1,-0.1,-0.1,-0.1,-0.2,-0.1c-0.1,-0.1,-0.2,-0.1,-0.3,-0.1c-0.1,-0,-0.2,-0,-0.2,-0.1v-0.3h0.1c0.1,0,0.2,0,0.3,-0.1c0.1,0,0.2,-0.1,0.3,-0.2c0.1,-0.1,0.1,-0.2,0.2,-0.4c0.1,-0.2,0.1,-0.3,0.1,-0.4L99.3,0.9c-0.1,-0.1,-0.1,-0.2,-0.1,-0.4c0,-0.1,-0.1,-0.2,-0.2,-0.3c-0.1,-0.1,-0.2,-0.2,-0.3,-0.2c-0.1,0,-0.2,-0.1,-0.3,-0.1H9.4c-0.1,0,-0.3,0.1,-0.3,0.1c-0.1,0.1,-0.2,0.1,-0.3,0.2c-0.1,0.1,-0.1,0.2,-0.2,0.3c-0.1,0.1,-0.1,0.2,-0.1,0.4l-1.4,55.8c0,0.1,0,0.3,0.1,0.4c0,0.2,0.1,0.2,0.2,0.4c0.1,0.1,0.2,0.1,0.3,0.2c0.1,0,0.2,0.1,0.3,0.1v0.2c-0.1,0,-0.3,0,-0.4,0.1c-0.2,0.1,-0.2,0.1,-0.3,0.1c-0.1,0,-0.2,0.1,-0.2,0.1c-0.1,0.1,-0.1,0.1,-0.1,0.2L0,86.1c0,0.7,0.1,1.5,0.2,2.3c0,0.1,0,0.1,0.1,0.2c0,0,0.2,0.2,0.5,0.2c0.1,0,0.3,0.1,0.4,0.1l0,0h105.4v0c0.1,0,0.5,0,0.6,-0.1c0.1,-0.1,0.4,-0.4,0.4,-0.4c0.1,-0.7,0.1,-1.5,0.2,-2.3L100.8,58.6z"/>
<circle fill="none" cx="53.9" cy="0" r="0.1"/>
<circle fill="none" cx="76.6" cy="0" r="0.1"/>
<circle fill="none" cx="99.7" cy="15.2" r="0.1"/>
<circle fill="none" cx="100.5" cy="43.8" r="0.1"/>
<circle fill="none" cx="104.2" cy="72.3" r="0.1"/>
<circle fill="none" cx="80.5" cy="88.8" r="0.1"/>
<circle fill="none" cx="53.9" cy="88.8" r="0.1"/>
<circle fill="none" cx="27.2" cy="88.8" r="0.1"/>
<circle fill="none" cx="3.4" cy="72.3" r="0.1"/>
<circle fill="none" cx="7.4" cy="43.8" r="0.1"/>
<circle fill="none" cx="8.1" cy="15.2" r="0.1"/>
<circle fill="none" cx="31.3" cy="0" r="0.1"/>
</g></g><rect stroke="none" stroke-width="0" fill="#FFFFFF" x="0" y="0" width="0" height="0" transform="translate(100.4,43.7)"/><path stroke="#000000" fill="none" d=""/><text font-family="OpenSansCondensedLight" font-size="14pt" fill="black" transform="translate(100.4,43.7)"/><rect stroke-width="0" fill="none" width="80.3" height="40.6" transform="translate(13.6,9.9)"/><text font-family="OpenSansCondensedLight" font-size="14pt" fill="black" transform="translate(13.6,9.9)" text-anchor="middle"><tspan x="40.2" y="26.6"> 102</tspan></text><path stroke="#000000" fill="none" transform="translate(13.6,9.9)" d="M 26.2 29 54.2 29"/></g><g transform="translate(92,51)"><g><g>
<g stroke="#000000" stroke-dasharray="none" fill="#FFFFFF">
    <path d="M110.9,0H2.5C1.1,0,0,1.1,0,2.6V66.8c0,1.4,1.1,2.6,2.5,2.6h43.6L43.1,80.9l-10,0.4v2.8h47.8v-2.8l-8.8,-0.6l-3,-11.5h41.6c1.4,0,2.5,-1.1,2.5,-2.6V2.6C113.4,1.1,112.3,0,110.9,0z"/>
    <path d="M109.9,4.4v60H3.5V4.4H109.9z"/>
</g>
<rect x="3.5" y="4.4" fill="none" width="106.3" height="60"/>
<circle fill="none" cx="56.7" cy="0" r="0.1"/>
<circle fill="none" cx="90.9" cy="0" r="0.1"/>
<circle fill="none" cx="113.3" cy="16.1" r="0.1"/>
<circle fill="none" cx="113.3" cy="34.4" r="0.1"/>
<circle fill="none" cx="113.3" cy="55.4" r="0.1"/>
<circle fill="none" cx="91.1" cy="69.2" r="0.1"/>
<circle fill="none" cx="56.8" cy="84.2" r="0.1"/>
<circle fill="none" cx="22.6" cy="69.4" r="0.1"/>
<circle fill="none" cx="0" cy="55.5" r="0.1"/>
<circle fill="none" cx="-0.1" cy="34.3" r="0.1"/>
<circle fill="none" cx="-0.1" cy="15.6" r="0.1"/>
<circle fill="none" cx="22.5" cy="0.1" r="0.1"/>
</g></g><rect stroke="none" stroke-width="0" fill="#FFFFFF" x="0" y="0" width="0" height="0" transform="translate(113.2,34.3)"/><path stroke="#000000" fill="none" d=""/><text font-family="OpenSansCondensedLight" font-size="14pt" fill="black" transform="translate(113.2,34.3)"/><rect stroke-width="0" fill="none" width="106.3" height="60" transform="translate(3.5,4.4)"/><text font-family="OpenSansCondensedLight" font-size="14pt" fill="black" transform="translate(3.5,4.4)" text-anchor="middle"><tspan x="53.2" y="36.3"> 104</tspan></text><path stroke="#000000" fill="none" transform="translate(3.5,4.4)" d="M 39.2 38 67.2 38"/></g><g transform="translate(105,140)"><g><g>
<g stroke="#000000" stroke-dasharray="none" fill="#FFFFFF">
    <path d="M85.3,39h-81.7C1.6,39,0,37.5,0,35.6V3.4C0,1.5,1.6,0,3.7,0h81.7c2,0,3.7,1.5,3.7,3.4v32.3C89,37.5,87.4,39,85.3,39z"/>
    <path d="M26.4,25.7h-4.4c-0.2,0,-0.4,-0.2,-0.4,-0.4V21.2c0,-0.2,0.2,-0.4,0.4,-0.4h4.4c0.2,0,0.4,0.2,0.4,0.4v4.1C26.9,25.4,26.7,25.7,26.4,25.7z"/>
    <path d="M34.5,25.7h-4.4c-0.2,0,-0.4,-0.2,-0.4,-0.4V21.2c0,-0.2,0.2,-0.4,0.4,-0.4h4.4c0.2,0,0.4,0.2,0.4,0.4v4.1C35,25.4,34.8,25.7,34.5,25.7z"/>
    <path d="M42.6,25.7H38.2c-0.2,0,-0.4,-0.2,-0.4,-0.4V21.2c0,-0.2,0.2,-0.4,0.4,-0.4h4.4c0.2,0,0.4,0.2,0.4,0.4v4.1C43.1,25.4,42.9,25.7,42.6,25.7z"/>
    <path d="M50.7,25.7h-4.4c-0.2,0,-0.4,-0.2,-0.4,-0.4V21.2c0,-0.2,0.2,-0.4,0.4,-0.4H50.7c0.2,0,0.4,0.2,0.4,0.4v4.1C51.2,25.4,51,25.7,50.7,25.7z"/>
    <path d="M58.8,25.7h-4.4c-0.2,0,-0.4,-0.2,-0.4,-0.4V21.2c0,-0.2,0.2,-0.4,0.4,-0.4h4.4c0.2,0,0.4,0.2,0.4,0.4v4.1C59.3,25.4,59.1,25.7,58.8,25.7z"/>
    <path d="M67,25.7h-4.4c-0.2,0,-0.4,-0.2,-0.4,-0.4V21.2c0,-0.2,0.2,-0.4,0.4,-0.4h4.4c0.2,0,0.4,0.2,0.4,0.4v4.1C67.4,25.4,67.2,25.7,67,25.7z"/>
    <path d="M22.8,18.3H18.4c-0.2,0,-0.4,-0.2,-0.4,-0.4v-4.1c0,-0.2,0.2,-0.4,0.4,-0.4h4.4c0.2,0,0.4,0.2,0.4,0.4v4.1C23.3,18.1,23.1,18.3,22.8,18.3z"/>
    <path d="M30.9,18.3h-4.4c-0.2,0,-0.4,-0.2,-0.4,-0.4v-4.1c0,-0.2,0.2,-0.4,0.4,-0.4H30.9c0.2,0,0.4,0.2,0.4,0.4v4.1C31.3,18.1,31.1,18.3,30.9,18.3z"/>
    <path d="M39,18.3h-4.4c-0.2,0,-0.4,-0.2,-0.4,-0.4v-4.1c0,-0.2,0.2,-0.4,0.4,-0.4h4.4c0.2,0,0.4,0.2,0.4,0.4v4.1C39.4,18.1,39.2,18.3,39,18.3z"/>
    <path d="M47.2,18.3h-4.4c-0.2,0,-0.4,-0.2,-0.4,-0.4v-4.1c0,-0.2,0.2,-0.4,0.4,-0.4h4.4c0.2,0,0.4,0.2,0.4,0.4v4.1C47.5,18.1,47.3,18.3,47.2,18.3z"/>
    <path d="M55.3,18.3h-4.4c-0.2,0,-0.4,-0.2,-0.4,-0.4v-4.1c0,-0.2,0.2,-0.4,0.4,-0.4h4.4c0.2,0,0.4,0.2,0.4,0.4v4.1C55.7,18.1,55.5,18.3,55.3,18.3z"/>
    <path d="M63.4,18.3h-4.5c-0.2,0,-0.4,-0.2,-0.4,-0.4v-4.1c0,-0.2,0.2,-0.4,0.4,-0.4H63.3c0.2,0,0.4,0.2,0.4,0.4v4.1C63.8,18.1,63.6,18.3,63.4,18.3z"/>
    <path d="M71.5,18.3h-4.4c-0.2,0,-0.4,-0.2,-0.4,-0.4v-4.1c0,-0.2,0.2,-0.4,0.4,-0.4H71.5c0.2,0,0.4,0.2,0.4,0.4v4.1C71.9,18.1,71.7,18.3,71.5,18.3z"/>
    <path d="M11.1,10.9H6.7c-0.2,0,-0.4,-0.2,-0.4,-0.4V6.4c0,-0.2,0.2,-0.4,0.4,-0.4H11.1c0.2,0,0.4,0.2,0.4,0.4v4.1C11.5,10.7,11.3,10.9,11.1,10.9z"/>
    <path d="M18.9,10.9H14.5c-0.2,0,-0.4,-0.2,-0.4,-0.4V6.4c0,-0.2,0.2,-0.4,0.4,-0.4h4.4c0.2,0,0.4,0.2,0.4,0.4v4.1C19.4,10.7,19.2,10.9,18.9,10.9z"/>
    <path d="M26.9,10.9h-4.4c-0.2,0,-0.4,-0.2,-0.4,-0.4V6.4c0,-0.2,0.2,-0.4,0.4,-0.4h4.4c0.2,0,0.4,0.2,0.4,0.4v4.1C27.3,10.7,27.2,10.9,26.9,10.9z"/>
    <path d="M34.8,10.9h-4.4c-0.2,0,-0.4,-0.2,-0.4,-0.4V6.4c0,-0.2,0.2,-0.4,0.4,-0.4H34.8c0.2,0,0.4,0.2,0.4,0.4v4.1C35.2,10.7,35,10.9,34.8,10.9z"/>
    <path d="M42.6,10.9H38.2c-0.2,0,-0.4,-0.2,-0.4,-0.4V6.4c0,-0.2,0.2,-0.4,0.4,-0.4h4.4c0.2,0,0.4,0.2,0.4,0.4v4.1C43.1,10.7,42.9,10.9,42.6,10.9z"/>
    <path d="M50.5,10.9h-4.4c-0.2,0,-0.4,-0.2,-0.4,-0.4V6.4c0,-0.2,0.2,-0.4,0.4,-0.4h4.4c0.2,0,0.4,0.2,0.4,0.4v4.1C51,10.7,50.8,10.9,50.5,10.9z"/>
    <path d="M58.5,10.9h-4.4c-0.2,0,-0.4,-0.2,-0.4,-0.4V6.4c0,-0.2,0.2,-0.4,0.4,-0.4H58.5c0.2,0,0.4,0.2,0.4,0.4v4.1C58.8,10.7,58.7,10.9,58.5,10.9z"/>
    <path d="M66.3,10.9H61.8c-0.2,0,-0.4,-0.2,-0.4,-0.4V6.4c0,-0.2,0.2,-0.4,0.4,-0.4h4.4c0.2,0,0.4,0.2,0.4,0.4v4.1C66.8,10.7,66.6,10.9,66.3,10.9z"/>
    <path d="M74.2,10.9h-4.4c-0.2,0,-0.4,-0.2,-0.4,-0.4V6.4c0,-0.2,0.2,-0.4,0.4,-0.4h4.4c0.2,0,0.4,0.2,0.4,0.4v4.1C74.6,10.7,74.4,10.9,74.2,10.9z"/>
    <path d="M82.1,10.9h-4.4c-0.2,0,-0.4,-0.2,-0.4,-0.4V6.4c0,-0.2,0.2,-0.4,0.4,-0.4H82.1c0.2,0,0.4,0.2,0.4,0.4v4.1C82.5,10.7,82.3,10.9,82.1,10.9z"/>
    <path d="M21.8,33h45.1c0.3,0,0.5,-0.2,0.5,-0.4v-4.1c0,-0.3,-0.2,-0.4,-0.5,-0.4H21.8c-0.3,0,-0.5,0.2,-0.5,0.4v4.1C21.4,32.8,21.5,33,21.8,33z"/>
    <path d="M6.7,33h11.6c0.3,0,0.5,-0.2,0.5,-0.4v-4.1c0,-0.3,-0.2,-0.4,-0.5,-0.4h-11.6c-0.3,0,-0.5,0.2,-0.5,0.4v4.1C6.2,32.8,6.4,33,6.7,33z"/>
    <path d="M70.6,33h11.7c0.3,0,0.5,-0.2,0.5,-0.4v-4.1c0,-0.3,-0.2,-0.4,-0.5,-0.4h-11.7c-0.3,0,-0.5,0.2,-0.5,0.4v4.1C70.2,32.8,70.3,33,70.6,33z"/>
    <path d="M70.6,25.7h11.7c0.3,0,0.5,-0.2,0.5,-0.4V21.2c0,-0.3,-0.2,-0.4,-0.5,-0.4h-11.7c-0.3,0,-0.5,0.2,-0.5,0.4v4.1C70.2,25.4,70.3,25.7,70.6,25.7z"/>
    <path d="M6.7,25.7h11.6c0.3,0,0.5,-0.2,0.5,-0.4V21.2c0,-0.3,-0.2,-0.4,-0.5,-0.4h-11.6c-0.3,0,-0.5,0.2,-0.5,0.4v4.1C6.2,25.4,6.4,25.7,6.7,25.7z"/>
    <path d="M6.7,18.3h8c0.3,0,0.5,-0.2,0.5,-0.4v-4.1c0,-0.3,-0.2,-0.4,-0.5,-0.4H6.7c-0.3,0,-0.5,0.2,-0.5,0.4v4.1C6.2,18.1,6.4,18.3,6.7,18.3z"/>
    <path d="M75.1,18.3h7.2c0.3,0,0.5,-0.2,0.5,-0.4v-4.1c0,-0.3,-0.2,-0.4,-0.5,-0.4h-7.2c-0.3,0,-0.5,0.2,-0.5,0.4v4.1C74.6,18.1,74.9,18.3,75.1,18.3z"/>
</g>
<rect x="3.2" y="2" fill="none" width="82.6" height="35"/>
<circle fill="none" cx="44.4" cy="0" r="0.1"/>
<circle fill="none" cx="69.2" cy="0" r="0.1"/>
<circle fill="none" cx="89" cy="5" r="0.1"/>
<circle fill="none" cx="89" cy="19.6" r="0.1"/>
<circle fill="none" cx="89" cy="34.1" r="0.1"/>
<circle fill="none" cx="69.1" cy="39" r="0.1"/>
<circle fill="none" cx="44.3" cy="39" r="0.1"/>
<circle fill="none" cx="15.2" cy="39" r="0.1"/>
<circle fill="none" cx="0" cy="34.2" r="0.1"/>
<circle fill="none" cx="0" cy="19.7" r="0.1"/>
<circle fill="none" cx="0" cy="4.9" r="0.1"/>
<circle fill="none" cx="15.2" cy="0.1" r="0.1"/>
</g></g><rect stroke="none" stroke-width="0" fill="#FFFFFF" x="0" y="0" width="0" height="0" transform="translate(88.9,19.5)"/><path stroke="#000000" fill="none" d=""/><text font-family="OpenSansCondensedLight" font-size="14pt" fill="black" transform="translate(88.9,19.5)"/><rect stroke-width="0" fill="none" width="267.6" transform="translate(-89.3,49.1)"/><text font-family="OpenSansCondensedLight" font-size="14pt" fill="black" transform="translate(-89.3,49.1)" text-anchor="middle"><tspan x="133.8" y="16.8"> </tspan></text><path stroke="#000000" fill="none" transform="translate(-89.3,49.1)" d="M 0 0"/></g><g transform="translate(2,207)"><g><g>
<g stroke-width="0.5" stroke="#000000" stroke-dasharray="none" fill="#FFFFFF">
    <path d="M0,75.9l9.9,-9.5h59.6l9.9,9.5v22.3H0V75.9z"/>
    <path d="M4.1,79.1H75.4c0.4,0,0.8,0.4,0.8,0.8v14.4c0,0.4,-0.4,0.8,-0.8,0.8H4.1c-0.4,0,-0.8,-0.4,-0.8,-0.8v-14.4C3.3,79.5,3.7,79.1,4.1,79.1"/>
    <path d="M57.1,85.6c0,1,-1.7,1,-1.7,0C55.5,84.4,57.1,84.4,57.1,85.6"/>
    <path d="M64.6,80.9h1.7v12.6h-1.7V80.9z"/>
    <path d="M5.8,80.9h5.1c0.4,0,0.8,0.4,0.8,0.8v3.2c0,0.4,-0.4,0.8,-0.8,0.8h-5.1c-0.4,0,-0.8,-0.4,-0.8,-0.8v-3.1C4.9,81.1,5.4,80.9,5.8,80.9"/>
    <path d="M5.8,88.8h5.1c0.4,0,0.8,0.4,0.8,0.8v3.2c0,0.4,-0.4,0.8,-0.8,0.8h-5.1c-0.4,0,-0.8,-0.4,-0.8,-0.8v-3.2C4.9,89.2,5.4,88.8,5.8,88.8"/>
    <path d="M15.8,80.9h5.1c0.4,0,0.8,0.4,0.8,0.8v3.2c0,0.4,-0.4,0.8,-0.8,0.8h-5.1c-0.4,0,-0.8,-0.4,-0.8,-0.8v-3.1C15,81.1,15.2,80.9,15.8,80.9"/>
    <path d="M25.7,80.9h5.1c0.4,0,0.8,0.4,0.8,0.8v3.2c0,0.4,-0.4,0.8,-0.8,0.8h-5.1c-0.4,0,-0.8,-0.4,-0.8,-0.8v-3.1C24.9,81.1,25.3,80.9,25.7,80.9"/>
    <path d="M35.6,80.9h5.1c0.4,0,0.8,0.4,0.8,0.8v3.2c0,0.4,-0.4,0.8,-0.8,0.8h-5.1c-0.4,0,-0.8,-0.4,-0.8,-0.8v-3.1C34.7,81.1,35.2,80.9,35.6,80.9"/>
    <path d="M45.6,80.9h5.1c0.4,0,0.8,0.4,0.8,0.8v3.2c0,0.4,-0.4,0.8,-0.8,0.8h-5.1c-0.4,0,-0.8,-0.4,-0.8,-0.8v-3.1C44.8,81.1,45,80.9,45.6,80.9"/>
    <path d="M15.8,88.8h5.1c0.4,0,0.8,0.4,0.8,0.8v3.2c0,0.4,-0.4,0.8,-0.8,0.8h-5.1c-0.4,0,-0.8,-0.4,-0.8,-0.8v-3.2C15,89.2,15.2,88.8,15.8,88.8"/>
    <path d="M25.7,88.8h5.1c0.4,0,0.8,0.4,0.8,0.8v3.2c0,0.4,-0.4,0.8,-0.8,0.8h-5.1c-0.4,0,-0.8,-0.4,-0.8,-0.8v-3.2C24.9,89.2,25.3,88.8,25.7,88.8"/>
    <path d="M35.6,88.8h5.1c0.4,0,0.8,0.4,0.8,0.8v3.2c0,0.4,-0.4,0.8,-0.8,0.8h-5.1c-0.4,0,-0.8,-0.4,-0.8,-0.8v-3.2C34.7,89.2,35.2,88.8,35.6,88.8"/>
    <path d="M45.6,88.8h5.1c0.4,0,0.8,0.4,0.8,0.8v3.2c0,0.4,-0.4,0.8,-0.8,0.8h-5.1c-0.4,0,-0.8,-0.4,-0.8,-0.8v-3.2C44.8,89.2,45,88.8,45.6,88.8"/>
    <path d="M6.6,75.9l6.6,-6.3h54.7l6.6,6.3H6.6z"/>
    <path d="M57.1,82.4c0,1,-1.7,1,-1.7,0C55.5,81.3,57.1,81.3,57.1,82.4"/>
    <path d="M67.8,80.9h1.7v12.6h-1.7V80.9z"/>
    <path d="M71.3,80.9h1.7v12.6h-1.7V80.9z"/>
    <path d="M57.1,88.8c0,1,-1.7,1,-1.7,0C55.5,87.8,57.1,87.6,57.1,88.8"/>
    <path d="M57.1,91.9c0,1,-1.7,1,-1.7,0C55.5,90.9,57.1,90.9,57.1,91.9"/>
    <path d="M0,53.9l9.9,-9.5h59.6l9.9,9.5v22.3H0V53.9z"/>
    <path d="M4.1,57H75.4c0.4,0,0.8,0.4,0.8,0.8v14.4c0,0.4,-0.4,0.8,-0.8,0.8H4.1c-0.4,0,-0.8,-0.4,-0.8,-0.8v-14.4C3.3,57.4,3.7,57,4.1,57"/>
    <path d="M57.1,63.3c0,1,-1.7,1,-1.7,0C55.5,62.3,57.1,62.3,57.1,63.3"/>
    <path d="M64.6,58.6h1.7v12.6h-1.7V58.6z"/>
    <path d="M5.8,58.6h5.1c0.4,0,0.8,0.4,0.8,0.8v3.2c0,0.4,-0.4,0.8,-0.8,0.8h-5.1c-0.4,0,-0.8,-0.4,-0.8,-0.8v-3.2C4.9,59,5.4,58.6,5.8,58.6"/>
    <path d="M5.8,66.7h5.1c0.4,0,0.8,0.4,0.8,0.8v3.2c0,0.4,-0.4,0.8,-0.8,0.8h-5.1c-0.4,0,-0.8,-0.4,-0.8,-0.8V67.5C4.9,66.9,5.4,66.7,5.8,66.7"/>
    <path d="M15.8,58.6h5.1c0.4,0,0.8,0.4,0.8,0.8v3.2c0,0.4,-0.4,0.8,-0.8,0.8h-5.1c-0.4,0,-0.8,-0.4,-0.8,-0.8v-3.2C15,59,15.2,58.6,15.8,58.6"/>
    <path d="M25.7,58.6h5.1c0.4,0,0.8,0.4,0.8,0.8v3.2c0,0.4,-0.4,0.8,-0.8,0.8h-5.1c-0.4,0,-0.8,-0.4,-0.8,-0.8v-3.2C24.9,59,25.3,58.6,25.7,58.6"/>
    <path d="M35.6,58.6h5.1c0.4,0,0.8,0.4,0.8,0.8v3.2c0,0.4,-0.4,0.8,-0.8,0.8h-5.1c-0.4,0,-0.8,-0.4,-0.8,-0.8v-3.2C34.7,59,35.2,58.6,35.6,58.6"/>
    <path d="M45.6,58.6h5.1c0.4,0,0.8,0.4,0.8,0.8v3.2c0,0.4,-0.4,0.8,-0.8,0.8h-5.1c-0.4,0,-0.8,-0.4,-0.8,-0.8v-3.2C44.8,59,45,58.6,45.6,58.6"/>
    <path d="M15.8,66.7h5.1c0.4,0,0.8,0.4,0.8,0.8v3.2c0,0.4,-0.4,0.8,-0.8,0.8h-5.1c-0.4,0,-0.8,-0.4,-0.8,-0.8V67.5C15,66.9,15.2,66.7,15.8,66.7"/>
    <path d="M25.7,66.7h5.1c0.4,0,0.8,0.4,0.8,0.8v3.2c0,0.4,-0.4,0.8,-0.8,0.8h-5.1c-0.4,0,-0.8,-0.4,-0.8,-0.8V67.5C24.9,66.9,25.3,66.7,25.7,66.7"/>
    <path d="M35.6,66.7h5.1c0.4,0,0.8,0.4,0.8,0.8v3.2c0,0.4,-0.4,0.8,-0.8,0.8h-5.1c-0.4,0,-0.8,-0.4,-0.8,-0.8V67.5C34.7,66.9,35.2,66.7,35.6,66.7"/>
    <path d="M45.6,66.7h5.1c0.4,0,0.8,0.4,0.8,0.8v3.2c0,0.4,-0.4,0.8,-0.8,0.8h-5.1c-0.4,0,-0.8,-0.4,-0.8,-0.8V67.5C44.8,66.9,45,66.7,45.6,66.7"/>
    <path d="M6.6,53.9l6.6,-6.3h54.7l6.6,6.3H6.6z"/>
    <path d="M57.1,60.2c0,1,-1.7,1,-1.7,0S57.1,59.2,57.1,60.2"/>
    <path d="M67.8,58.6h1.7v12.6h-1.7V58.6z"/>
    <path d="M71.3,58.6h1.7v12.6h-1.7V58.6z"/>
    <path d="M57.1,66.7c0,1,-1.7,1,-1.7,0C55.5,65.7,57.1,65.5,57.1,66.7"/>
    <path d="M57.1,69.8c0,1,-1.7,1,-1.7,0C55.5,68.9,57.1,68.6,57.1,69.8"/>
    <path d="M0,31.6l9.9,-9.5h59.6l9.9,9.5v22.3H0V31.6z"/>
    <path d="M4.1,34.7H75.4c0.4,0,0.8,0.4,0.8,0.8v14.4c0,0.4,-0.4,0.8,-0.8,0.8H4.1c-0.4,0,-0.8,-0.4,-0.8,-0.8v-14.4C3.3,35.1,3.7,34.7,4.1,34.7"/>
    <path d="M57.1,41.2c0,1,-1.7,1,-1.7,0C55.5,40,57.1,40,57.1,41.2"/>
    <path d="M64.6,36.3h1.7v12.6h-1.7V36.3z"/>
    <path d="M5.8,36.3h5.1c0.4,0,0.8,0.4,0.8,0.8v3.2c0,0.4,-0.4,0.8,-0.8,0.8h-5.1c-0.4,0,-0.8,-0.4,-0.8,-0.8v-3.2C4.9,36.7,5.4,36.3,5.8,36.3"/>
    <path d="M5.8,44.4h5.1c0.4,0,0.8,0.4,0.8,0.8v3.2c0,0.4,-0.4,0.8,-0.8,0.8h-5.1c-0.4,0,-0.8,-0.4,-0.8,-0.8v-3.2C4.9,44.8,5.4,44.4,5.8,44.4"/>
    <path d="M15.8,36.3h5.1c0.4,0,0.8,0.4,0.8,0.8v3.2c0,0.4,-0.4,0.8,-0.8,0.8h-5.1c-0.4,0,-0.8,-0.4,-0.8,-0.8v-3.2C15,36.7,15.2,36.3,15.8,36.3"/>
    <path d="M25.7,36.3h5.1c0.4,0,0.8,0.4,0.8,0.8v3.2c0,0.4,-0.4,0.8,-0.8,0.8h-5.1c-0.4,0,-0.8,-0.4,-0.8,-0.8v-3.2C24.9,36.7,25.3,36.3,25.7,36.3"/>
    <path d="M35.6,36.3h5.1c0.4,0,0.8,0.4,0.8,0.8v3.2c0,0.4,-0.4,0.8,-0.8,0.8h-5.1c-0.4,0,-0.8,-0.4,-0.8,-0.8v-3.2C34.7,36.7,35.2,36.3,35.6,36.3"/>
    <path d="M45.6,36.3h5.1c0.4,0,0.8,0.4,0.8,0.8v3.2c0,0.4,-0.4,0.8,-0.8,0.8h-5.1c-0.4,0,-0.8,-0.4,-0.8,-0.8v-3.2C44.8,36.7,45,36.3,45.6,36.3"/>
    <path d="M15.8,44.4h5.1c0.4,0,0.8,0.4,0.8,0.8v3.2c0,0.4,-0.4,0.8,-0.8,0.8h-5.1c-0.4,0,-0.8,-0.4,-0.8,-0.8v-3.2C15,44.8,15.2,44.4,15.8,44.4"/>
    <path d="M25.7,44.4h5.1c0.4,0,0.8,0.4,0.8,0.8v3.2c0,0.4,-0.4,0.8,-0.8,0.8h-5.1c-0.4,0,-0.8,-0.4,-0.8,-0.8v-3.2C24.9,44.8,25.3,44.4,25.7,44.4"/>
    <path d="M35.6,44.4h5.1c0.4,0,0.8,0.4,0.8,0.8v3.2c0,0.4,-0.4,0.8,-0.8,0.8h-5.1c-0.4,0,-0.8,-0.4,-0.8,-0.8v-3.2C34.7,44.8,35.2,44.4,35.6,44.4"/>
    <path d="M45.6,44.4h5.1c0.4,0,0.8,0.4,0.8,0.8v3.2c0,0.4,-0.4,0.8,-0.8,0.8h-5.1c-0.4,0,-0.8,-0.4,-0.8,-0.8v-3.2C44.8,44.8,45,44.4,45.6,44.4"/>
    <path d="M6.6,31.6l6.6,-6.3h54.7l6.6,6.3H6.6z"/>
    <path d="M57.1,37.9c0,1,-1.7,1,-1.7,0C55.5,36.9,57.1,36.9,57.1,37.9"/>
    <path d="M67.8,36.3h1.7v12.6h-1.7V36.3z"/>
    <path d="M71.3,36.3h1.7v12.6h-1.7V36.3z"/>
    <path d="M57.1,44.4c0,1,-1.7,1,-1.7,0C55.5,43.4,57.1,43.2,57.1,44.4"/>
    <path d="M57.1,47.5c0,1,-1.7,1,-1.7,0C55.5,46.6,57.1,46.4,57.1,47.5"/>
    <path d="M0,9.5L9.9,0h59.6l9.9,9.5v22.3H0V9.5z"/>
    <path d="M4.1,12.6H75.4c0.4,0,0.8,0.4,0.8,0.8v14.4c0,0.4,-0.4,0.8,-0.8,0.8H4.1c-0.4,0,-0.8,-0.4,-0.8,-0.8v-14.4C3.3,13,3.7,12.6,4.1,12.6"/>
    <path d="M57.1,18.9c0,1,-1.7,1,-1.7,0C55.5,18,57.1,18,57.1,18.9"/>
    <path d="M64.6,14.2h1.7v12.6h-1.7V14.2z"/>
    <path d="M5.8,14.2h5.1c0.4,0,0.8,0.4,0.8,0.8v3.2c0,0.4,-0.4,0.8,-0.8,0.8h-5.1c-0.4,0,-0.8,-0.4,-0.8,-0.8V15C4.9,14.6,5.4,14.2,5.8,14.2"/>
    <path d="M5.8,22.1h5.1c0.4,0,0.8,0.4,0.8,0.8v3.2c0,0.4,-0.4,0.8,-0.8,0.8h-5.1c-0.4,0,-0.8,-0.4,-0.8,-0.8v-3.1C4.9,22.5,5.4,22.1,5.8,22.1"/>
    <path d="M15.8,14.2h5.1c0.4,0,0.8,0.4,0.8,0.8v3.2c0,0.4,-0.4,0.8,-0.8,0.8h-5.1c-0.4,0,-0.8,-0.4,-0.8,-0.8V15C15,14.6,15.2,14.2,15.8,14.2"/>
    <path d="M25.7,14.2h5.1c0.4,0,0.8,0.4,0.8,0.8v3.2c0,0.4,-0.4,0.8,-0.8,0.8h-5.1c-0.4,0,-0.8,-0.4,-0.8,-0.8V15C24.9,14.6,25.3,14.2,25.7,14.2"/>
    <path d="M35.6,14.2h5.1c0.4,0,0.8,0.4,0.8,0.8v3.2c0,0.4,-0.4,0.8,-0.8,0.8h-5.1c-0.4,0,-0.8,-0.4,-0.8,-0.8V15C34.7,14.6,35.2,14.2,35.6,14.2"/>
    <path d="M45.6,14.2h5.1c0.4,0,0.8,0.4,0.8,0.8v3.2c0,0.4,-0.4,0.8,-0.8,0.8h-5.1c-0.4,0,-0.8,-0.4,-0.8,-0.8V15C44.8,14.6,45,14.2,45.6,14.2"/>
    <path d="M15.8,22.1h5.1c0.4,0,0.8,0.4,0.8,0.8v3.2c0,0.4,-0.4,0.8,-0.8,0.8h-5.1c-0.4,0,-0.8,-0.4,-0.8,-0.8v-3.1C15,22.5,15.2,22.1,15.8,22.1"/>
    <path d="M25.7,22.1h5.1c0.4,0,0.8,0.4,0.8,0.8v3.2c0,0.4,-0.4,0.8,-0.8,0.8h-5.1c-0.4,0,-0.8,-0.4,-0.8,-0.8v-3.1C24.9,22.5,25.3,22.1,25.7,22.1"/>
    <path d="M35.6,22.1h5.1c0.4,0,0.8,0.4,0.8,0.8v3.2c0,0.4,-0.4,0.8,-0.8,0.8h-5.1c-0.4,0,-0.8,-0.4,-0.8,-0.8v-3.1C34.7,22.5,35.2,22.1,35.6,22.1"/>
    <path d="M45.6,22.1h5.1c0.4,0,0.8,0.4,0.8,0.8v3.2c0,0.4,-0.4,0.8,-0.8,0.8h-5.1c-0.4,0,-0.8,-0.4,-0.8,-0.8v-3.1C44.8,22.5,45,22.1,45.6,22.1"/>
    <path d="M6.6,9.5l6.6,-6.3h54.7l6.6,6.3H6.6z"/>
    <path d="M57.1,15.8c0,1,-1.7,1,-1.7,0S57.1,14.8,57.1,15.8"/>
    <path d="M67.8,14.2h1.7v12.6h-1.7V14.2z"/>
    <path d="M71.3,14.2h1.7v12.6h-1.7V14.2z"/>
    <path d="M57.1,22.1c0,1,-1.7,1,-1.7,0C55.5,21.1,57.1,21.1,57.1,22.1"/>
    <path d="M57.1,25.4c0,1,-1.7,1,-1.7,0C55.5,24.5,57.1,24.3,57.1,25.4"/>
</g>
<rect x="3.3" y="14.6" width="73" height="74.5" fill="none"/>
<polygon fill="none" points="69.5,0 9.9,0 0,9.5 0,98.3 79.4,98.3 79.4,9.5"/>
<circle fill="none" cx="39.7" cy="0" r="0.1"/>
<circle fill="none" cx="59.3" cy="0" r="0.1"/>
<circle fill="none" cx="79.3" cy="24.8" r="0.1"/>
<circle fill="none" cx="79.3" cy="49.1" r="0.1"/>
<circle fill="none" cx="79.3" cy="73.5" r="0.1"/>
<circle fill="none" cx="59.3" cy="98.3" r="0.1"/>
<circle fill="none" cx="39.7" cy="98.3" r="0.1"/>
<circle fill="none" cx="20.1" cy="98.3" r="0.1"/>
<circle fill="none" cx="0" cy="73.5" r="0.1"/>
<circle fill="none" cx="0" cy="49.1" r="0.1"/>
<circle fill="none" cx="0" cy="24.8" r="0.1"/>
<circle fill="none" cx="20.1" cy="0" r="0.1"/>
</g></g><rect stroke="none" stroke-width="0" fill="#FFFFFF" x="0" y="0" width="0" height="0" transform="translate(79.2,49)"/><path stroke="#000000" fill="none" d=""/><text font-family="OpenSansCondensedLight" font-size="14pt" fill="black" transform="translate(79.2,49)"/><rect stroke-width="0" fill="none" width="238.6" transform="translate(-79.6,108.4)"/><text font-family="OpenSansCondensedLight" font-size="14pt" fill="black" transform="translate(-79.6,108.4)" text-anchor="middle"><tspan x="119.3" y="16.8"> 106</tspan></text><path stroke="#000000" fill="none" transform="translate(-79.6,108.4)" d="M 102.5 19 130.5 19"/></g><g transform="translate(269,262)"><g><g>
<path d="M42.9,0c-9.3,0,-17.2,5.5,-20,13.2C10.1,14.6,0,24.7,0,37.2c0,13.3,11.6,24.2,25.7,24.2c0.7,0,1.5,0,2.2,-0.2c2.5,7.9,10.1,13.7,19.5,13.7c7.6,0,14.4,-4.1,17.7,-10c3.5,3.5,8.6,5.6,14.2,5.6c8.7,0,16.2,-5.3,18.9,-12.6c0.2,0,0.2,0,0.4,0c11.7,0,21.2,-8.9,21.2,-20s-9.5,-20,-21.3,-20c-2.3,0,-4.3,0.4,-6.1,0.9c-1.9,-7.5,-9.1,-13.2,-17.7,-13.2c-5,0,-9.5,1.9,-12.9,5.1C58.2,4.4,51.1,0,42.9,0L42.9,0z" stroke="#000000" stroke-dasharray="none" fill="#FFFFFF"/>
<rect x="10.9" y="23.3" width="96.1" height="28.4" fill="none"/>
<circle fill="none" cx="61.8" cy="10.7" r="0.1"/>
<circle fill="none" cx="78.7" cy="6" r="0.1"/>
<circle fill="none" cx="92.4" cy="18.7" r="0.1"/>
<circle fill="none" cx="119.8" cy="37.2" r="0.1"/>
<circle fill="none" cx="98.2" cy="57.9" r="0.1"/>
<circle fill="none" cx="80.8" cy="70.4" r="0.1"/>
<circle fill="none" cx="65.1" cy="64.9" r="0.1"/>
<circle fill="none" cx="46.8" cy="74.8" r="0.1"/>
<circle fill="none" cx="0" cy="37.2" r="0.1"/>
<circle fill="none" cx="27.9" cy="61.2" r="0.1"/>
<circle fill="none" cx="23" cy="13.2" r="0.1"/>
<circle fill="none" cx="42.9" cy="0" r="0.1"/>
</g></g><rect stroke="none" stroke-width="1" fill="#FFFFFF" x="0" y="0" width="40" height="20" transform="translate(130,77.8)"/><path stroke="#000000" fill="none" d="M98.2,57.9 C104.4,80.9 126.5,54.7 132.7 77.8"/><text font-family="OpenSansCondensedLight" font-size="14pt" fill="black" transform="translate(130,77.8)" text-anchor="middle"><tspan x="20" y="16.3">108</tspan></text><rect stroke-width="0" fill="none" width="96.1" height="28.4" transform="translate(10.9,23.3)"/><text font-family="OpenSansCondensedLight" font-size="14pt" fill="black" transform="translate(10.9,23.3)" text-anchor="middle"><tspan x="48.1" y="20.5">WLAN</tspan></text><path stroke="#000000" fill="none" transform="translate(10.9,23.3)" d="M 0 0"/></g><g><path stroke="black" stroke-dasharray="none" d="M 81 229 144 229 145 299 269 299" fill="none"/><path fill="black" stroke="black" d="" transform="translate(81,229) scale(1,1) rotate(0)"/><path fill="black" stroke="black" d="" transform="translate(269,299) scale(1,1) rotate(-180)"/><g><g label-idx="0" cursor="move" transform="translate(144.9, 294.5)"><rect fill="white" rx="3" ry="3" x="0" y="0" width="0" height="0"/><text text-anchor="middle" font-size="14pt" font-family="OpenSansCondensedLight" y="0.8em" display="none" xml:space="preserve" transform="translate(0,0)"/></g></g></g><g><path stroke="black" stroke-dasharray="none" d="M 205 89 313 89 313 262" fill="none"/><path fill="black" stroke="black" d="" transform="translate(205,89) scale(1,1) rotate(0)"/><path fill="black" stroke="black" d="" transform="translate(313,262) scale(1,1) rotate(-90)"/><g><g label-idx="0" cursor="move" transform="translate(313, 121.5)"><rect fill="white" rx="3" ry="3" x="0" y="0" width="0" height="0"/><text text-anchor="middle" font-size="14pt" font-family="OpenSansCondensedLight" y="0.8em" display="none" xml:space="preserve" transform="translate(0,0)"/></g></g></g><g><path stroke="black" stroke-dasharray="none" d="M 525 183 525 299 389 299" fill="none"/><path fill="black" stroke="black" d="" transform="translate(525,183) scale(1,1) rotate(-270)"/><path fill="black" stroke="black" d="" transform="translate(389,299) scale(1,1) rotate(0)"/><g><g label-idx="0" cursor="move" transform="translate(515, 299)"><rect fill="white" rx="3" ry="3" x="0" y="0" width="0" height="0"/><text text-anchor="middle" font-size="14pt" font-family="OpenSansCondensedLight" y="0.8em" display="none" xml:space="preserve" transform="translate(0,0)"/></g></g></g><g transform="translate(75,411)"><g><g>
<path d="M413,0H0v438h413V0L413,0z" stroke="#000000" stroke-dasharray="none" fill="#FFFFFF"/>
<rect x="18.1" y="20" width="376.9" height="398.1" fill="none"/>
<circle fill="none" cx="206.5" cy="0" r="0.1"/>
<circle fill="none" cx="308.8" cy="0" r="0.1"/>
<circle fill="none" cx="413" cy="110.4" r="0.1"/>
<circle fill="none" cx="413" cy="219" r="0.1"/>
<circle fill="none" cx="413" cy="327.5" r="0.1"/>
<circle fill="none" cx="308.8" cy="438" r="0.1"/>
<circle fill="none" cx="206.5" cy="438" r="0.1"/>
<circle fill="none" cx="104.2" cy="438" r="0.1"/>
<circle fill="none" cx="0" cy="327.5" r="0.1"/>
<circle fill="none" cx="0" cy="219" r="0.1"/>
<circle fill="none" cx="0" cy="110.4" r="0.1"/>
<circle fill="none" cx="104.2" cy="0" r="0.1"/>
</g></g><rect stroke="none" stroke-width="0" fill="#FFFFFF" x="0" y="0" width="0" height="0" transform="translate(412.9,218.9)"/><path stroke="#000000" fill="none" d=""/><text font-family="OpenSansCondensedLight" font-size="14pt" fill="black" transform="translate(412.9,218.9)"/><rect stroke-width="0" fill="none" width="376.9" height="398.1" transform="translate(18.1,20)"/><text font-family="OpenSansCondensedLight" font-size="14pt" fill="black" transform="translate(18.1,20)" text-anchor="middle"><tspan x="188.5" y="393.9"> 110</tspan></text><path stroke="#000000" fill="none" transform="translate(18.1,20)" d="M 174.8 396 202.1 396"/></g><g transform="translate(91,337)"><g><g>
<path d="M21.5,0c-4.7,0,-8.6,3.4,-10,8.3C5,9.1,0,15.5,0,23.3c0,8.4,5.8,15.2,12.9,15.2c0.4,0,0.7,0,1.1,-0.1c1.2,5,5.1,8.6,9.8,8.6c3.8,0,7.2,-2.5,8.9,-6.3c1.8,2.2,4.3,3.5,7.1,3.5c4.4,0,8.1,-3.3,9.5,-7.9c0.1,0,0.1,0,0.2,0c5.9,0,10.6,-5.6,10.6,-12.5s-4.8,-12.6,-10.7,-12.6c-1.1,0,-2.2,0.2,-3.1,0.6c-0.9,-4.7,-4.6,-8.3,-8.9,-8.3c-2.5,0,-4.8,1.2,-6.5,3.2C29.2,2.7,25.6,0,21.5,0L21.5,0z" stroke="#000000" stroke-dasharray="none" fill="#FFFFFF"/>
<rect x="5.4" y="14.6" width="48.1" height="17.8" fill="none"/>
<circle fill="none" cx="30.9" cy="6.7" r="0.1"/>
<circle fill="none" cx="39.4" cy="3.8" r="0.1"/>
<circle fill="none" cx="46.3" cy="11.8" r="0.1"/>
<circle fill="none" cx="60" cy="23.4" r="0.1"/>
<circle fill="none" cx="49.2" cy="36.3" r="0.1"/>
<circle fill="none" cx="40.5" cy="44.2" r="0.1"/>
<circle fill="none" cx="32.6" cy="40.7" r="0.1"/>
<circle fill="none" cx="23.4" cy="47" r="0.1"/>
<circle fill="none" cx="0" cy="23.3" r="0.1"/>
<circle fill="none" cx="14" cy="38.4" r="0.1"/>
<circle fill="none" cx="11.5" cy="8.3" r="0.1"/>
<circle fill="none" cx="21.5" cy="0" r="0.1"/>
</g></g><rect stroke="none" stroke-width="0" fill="#FFFFFF" x="0" y="0" width="0" height="0" transform="translate(59.9,23.3)"/><path stroke="#000000" fill="none" d=""/><text font-family="OpenSansCondensedLight" font-size="14pt" fill="black" transform="translate(59.9,23.3)"/><rect stroke-width="0" fill="none" width="48.1" height="17.8" transform="translate(5.4,14.6)"/><text font-family="OpenSansCondensedLight" font-size="14pt" fill="black" transform="translate(5.4,14.6)" text-anchor="middle"><tspan x="24.1" y="15.2">LAN</tspan></text><path stroke="#000000" fill="none" transform="translate(5.4,14.6)" d="M 0 0"/></g><g><path stroke="black" stroke-dasharray="none" d="M 61 305 102 345" fill="none"/><path fill="black" stroke="black" d="" transform="translate(61,305) scale(1,1) rotate(44.3)"/><path fill="black" stroke="black" d="" transform="translate(102,345) scale(1,1) rotate(-135.7)"/><g><g label-idx="0" cursor="move" transform="translate(81.5, 325)"><rect fill="white" rx="3" ry="3" x="0" y="0" width="0" height="0"/><text text-anchor="middle" font-size="14pt" font-family="OpenSansCondensedLight" y="0.8em" display="none" xml:space="preserve" transform="translate(0,0)"/></g></g></g><g><path stroke="black" stroke-dasharray="none" d="M 118 384 118 411" fill="none"/><path fill="black" stroke="black" d="" transform="translate(118,384) scale(1,1) rotate(-270)"/><path fill="black" stroke="black" d="" transform="translate(118,411) scale(1,1) rotate(-90)"/><g><g label-idx="0" cursor="move" transform="translate(118, 397.5)"><rect fill="white" rx="3" ry="3" x="0" y="0" width="0" height="0"/><text text-anchor="middle" font-size="14pt" font-family="OpenSansCondensedLight" y="0.8em" display="none" xml:space="preserve" transform="translate(0,0)"/></g></g></g><g><path stroke="black" stroke-dasharray="5,5" d="M 319 337 319 411" fill="none"/><path fill="black" stroke="black" d="" transform="translate(319,337) scale(1,1) rotate(-270)"/><path fill="black" stroke="black" d="" transform="translate(319,411) scale(1,1) rotate(-90)"/><g><g label-idx="0" cursor="move" transform="translate(319, 374)"><rect fill="white" rx="3" ry="3" x="-39.9" y="-13.1" width="79.8" height="22"/><text text-anchor="start" font-size="14pt" font-family="OpenSansCondensedLight" y="0.8em" display="null" xml:space="preserve" transform="translate(0,-11)"><tspan x="-30.6" y="0.8em">optional</tspan></text></g></g></g><g transform="translate(87,429)"><g><g>
<path d="M129,0H0v47h129V0L129,0z" stroke="#000000" stroke-dasharray="none" fill="#FFFFFF"/>
<rect x="5.6" y="2.1" width="117.7" height="42.7" fill="none"/>
<circle fill="none" cx="64.5" cy="0" r="0.1"/>
<circle fill="none" cx="96.5" cy="0" r="0.1"/>
<circle fill="none" cx="129" cy="11.9" r="0.1"/>
<circle fill="none" cx="129" cy="23.5" r="0.1"/>
<circle fill="none" cx="129" cy="35.1" r="0.1"/>
<circle fill="none" cx="96.5" cy="47" r="0.1"/>
<circle fill="none" cx="64.5" cy="47" r="0.1"/>
<circle fill="none" cx="32.5" cy="47" r="0.1"/>
<circle fill="none" cx="0" cy="35.1" r="0.1"/>
<circle fill="none" cx="0" cy="23.5" r="0.1"/>
<circle fill="none" cx="0" cy="11.9" r="0.1"/>
<circle fill="none" cx="32.5" cy="0" r="0.1"/>
</g></g><rect stroke="none" stroke-width="1" fill="#FFFFFF" x="0" y="0" width="40" height="20" transform="translate(106.4,-62.1)"/><path stroke="#000000" fill="none" d="M96.5,0 C124.6,-7.6 92.5,-34.5 120.6 -42.1"/><text font-family="OpenSansCondensedLight" font-size="14pt" fill="black" transform="translate(106.4,-62.1)" text-anchor="middle"><tspan x="20" y="16.3">112</tspan></text><rect stroke-width="0" fill="none" width="117.7" height="42.7" transform="translate(5.6,2.1)"/><text font-family="OpenSansCondensedLight" font-size="14pt" fill="black" transform="translate(5.6,2.1)" text-anchor="middle"><tspan x="58.9" y="27.7">PROCESSOR</tspan></text><path stroke="#000000" fill="none" transform="translate(5.6,2.1)" d="M 0 0"/></g><g transform="translate(247,429)"><g><g>
<path d="M208,0H0v46h208V0L208,0z" stroke="#000000" stroke-dasharray="none" fill="#FFFFFF"/>
<rect x="9.1" y="2.1" width="189.8" height="41.8" fill="none"/>
<circle fill="none" cx="104" cy="0" r="0.1"/>
<circle fill="none" cx="155.5" cy="0" r="0.1"/>
<circle fill="none" cx="208" cy="11.6" r="0.1"/>
<circle fill="none" cx="208" cy="23" r="0.1"/>
<circle fill="none" cx="208" cy="34.4" r="0.1"/>
<circle fill="none" cx="155.5" cy="46" r="0.1"/>
<circle fill="none" cx="104" cy="46" r="0.1"/>
<circle fill="none" cx="52.5" cy="46" r="0.1"/>
<circle fill="none" cx="0" cy="34.4" r="0.1"/>
<circle fill="none" cx="0" cy="23" r="0.1"/>
<circle fill="none" cx="0" cy="11.6" r="0.1"/>
<circle fill="none" cx="52.5" cy="0" r="0.1"/>
</g></g><rect stroke="none" stroke-width="1" fill="#FFFFFF" x="0" y="0" width="40" height="20" transform="translate(247.9,12.9)"/><path stroke="#000000" fill="none" d="M208,23 C225,39.9 230.9,6 247.9 22.9"/><text font-family="OpenSansCondensedLight" font-size="14pt" fill="black" transform="translate(247.9,12.9)" text-anchor="middle"><tspan x="20" y="16.3">114</tspan></text><rect stroke-width="0" fill="none" width="189.8" height="41.8" transform="translate(9.1,2.1)"/><text font-family="OpenSansCondensedLight" font-size="14pt" fill="black" transform="translate(9.1,2.1)" text-anchor="middle"><tspan x="94.9" y="27.2">NETWORK INTERFACE</tspan></text><path stroke="#000000" fill="none" transform="translate(9.1,2.1)" d="M 0 0"/></g><g transform="translate(99,492)"><g><g>
<path d="M107,0H0v46h107V0L107,0z" stroke="#000000" stroke-dasharray="none" fill="#FFFFFF"/>
<rect x="4.7" y="2.1" width="97.6" height="41.8" fill="none"/>
<circle fill="none" cx="53.5" cy="0" r="0.1"/>
<circle fill="none" cx="80" cy="0" r="0.1"/>
<circle fill="none" cx="107" cy="11.6" r="0.1"/>
<circle fill="none" cx="107" cy="23" r="0.1"/>
<circle fill="none" cx="107" cy="34.4" r="0.1"/>
<circle fill="none" cx="80" cy="46" r="0.1"/>
<circle fill="none" cx="53.5" cy="46" r="0.1"/>
<circle fill="none" cx="27" cy="46" r="0.1"/>
<circle fill="none" cx="0" cy="34.4" r="0.1"/>
<circle fill="none" cx="0" cy="23" r="0.1"/>
<circle fill="none" cx="0" cy="11.6" r="0.1"/>
<circle fill="none" cx="27" cy="0" r="0.1"/>
</g></g><rect stroke="none" stroke-width="1" fill="#FFFFFF" x="0" y="0" width="40" height="20" transform="translate(-23.1,87.9)"/><path stroke="#000000" fill="none" d="M27,46 C-1.1,53.5 30.8,80.4 2.7 87.9"/><text font-family="OpenSansCondensedLight" font-size="14pt" fill="black" transform="translate(-23.1,87.9)" text-anchor="middle"><tspan x="20" y="16.3">116</tspan></text><rect stroke-width="0" fill="none" width="97.6" height="41.8" transform="translate(4.7,2.1)"/><text font-family="OpenSansCondensedLight" font-size="14pt" fill="black" transform="translate(4.7,2.1)" text-anchor="middle"><tspan x="48.8" y="27.2">RAM</tspan></text><path stroke="#000000" fill="none" transform="translate(4.7,2.1)" d="M 0 0"/></g><g transform="translate(217,493)"><g><g>
<path d="M107,0H0v46h107V0L107,0z" stroke="#000000" stroke-dasharray="none" fill="#FFFFFF"/>
<rect x="4.7" y="2.1" width="97.6" height="41.8" fill="none"/>
<circle fill="none" cx="53.5" cy="0" r="0.1"/>
<circle fill="none" cx="80" cy="0" r="0.1"/>
<circle fill="none" cx="107" cy="11.6" r="0.1"/>
<circle fill="none" cx="107" cy="23" r="0.1"/>
<circle fill="none" cx="107" cy="34.4" r="0.1"/>
<circle fill="none" cx="80" cy="46" r="0.1"/>
<circle fill="none" cx="53.5" cy="46" r="0.1"/>
<circle fill="none" cx="27" cy="46" r="0.1"/>
<circle fill="none" cx="0" cy="34.4" r="0.1"/>
<circle fill="none" cx="0" cy="23" r="0.1"/>
<circle fill="none" cx="0" cy="11.6" r="0.1"/>
<circle fill="none" cx="27" cy="0" r="0.1"/>
</g></g><rect stroke="none" stroke-width="0" fill="#FFFFFF" x="0" y="0" width="0" height="0" transform="translate(26.9,45.9)"/><path stroke="#000000" fill="none" d=""/><text font-family="OpenSansCondensedLight" font-size="14pt" fill="black" transform="translate(26.9,45.9)"/><rect stroke-width="0" fill="none" width="97.6" height="41.8" transform="translate(4.7,2.1)"/><text font-family="OpenSansCondensedLight" font-size="14pt" fill="black" transform="translate(4.7,2.1)" text-anchor="middle"><tspan x="48.8" y="27.2">ROM 118</tspan></text><path stroke="#000000" fill="none" transform="translate(4.7,2.1)" d="M 58.8 29 86.1 29"/></g><g transform="translate(337,493)"><g><g>
<path d="M137,0H0v46h137V0L137,0z" stroke="#000000" stroke-dasharray="none" fill="#FFFFFF"/>
<rect x="6" y="2.1" width="125" height="41.8" fill="none"/>
<circle fill="none" cx="68.5" cy="0" r="0.1"/>
<circle fill="none" cx="102.5" cy="0" r="0.1"/>
<circle fill="none" cx="137" cy="11.6" r="0.1"/>
<circle fill="none" cx="137" cy="23" r="0.1"/>
<circle fill="none" cx="137" cy="34.4" r="0.1"/>
<circle fill="none" cx="102.5" cy="46" r="0.1"/>
<circle fill="none" cx="68.5" cy="46" r="0.1"/>
<circle fill="none" cx="34.6" cy="46" r="0.1"/>
<circle fill="none" cx="0" cy="34.4" r="0.1"/>
<circle fill="none" cx="0" cy="23" r="0.1"/>
<circle fill="none" cx="0" cy="11.6" r="0.1"/>
<circle fill="none" cx="34.6" cy="0" r="0.1"/>
</g></g><rect stroke="none" stroke-width="1" fill="#FFFFFF" x="0" y="0" width="40" height="20" transform="translate(176.9,12.9)"/><path stroke="#000000" fill="none" d="M137,23 C154,39.9 159.9,6 176.9 22.9"/><text font-family="OpenSansCondensedLight" font-size="14pt" fill="black" transform="translate(176.9,12.9)" text-anchor="middle"><tspan x="20" y="16.3">120</tspan></text><rect stroke-width="0" fill="none" width="125" height="41.8" transform="translate(6,2.1)"/><text font-family="OpenSansCondensedLight" font-size="14pt" fill="black" transform="translate(6,2.1)" text-anchor="middle"><tspan x="62.5" y="27.2">INPUT/OUTPUT</tspan></text><path stroke="#000000" fill="none" transform="translate(6,2.1)" d="M 0 0"/></g><g transform="translate(144,550)"><g><g>
<path d="M323,0H0v256h323V0L323,0z" stroke="#000000" stroke-dasharray="none" fill="#FFFFFF"/>
<rect x="14.1" y="11.7" width="294.8" height="232.7" fill="none"/>
<circle fill="none" cx="161.5" cy="0" r="0.1"/>
<circle fill="none" cx="241.5" cy="0" r="0.1"/>
<circle fill="none" cx="323" cy="64.6" r="0.1"/>
<circle fill="none" cx="323" cy="128" r="0.1"/>
<circle fill="none" cx="323" cy="191.4" r="0.1"/>
<circle fill="none" cx="241.5" cy="256" r="0.1"/>
<circle fill="none" cx="161.5" cy="256" r="0.1"/>
<circle fill="none" cx="81.5" cy="256" r="0.1"/>
<circle fill="none" cx="0" cy="191.4" r="0.1"/>
<circle fill="none" cx="0" cy="128" r="0.1"/>
<circle fill="none" cx="0" cy="64.6" r="0.1"/>
<circle fill="none" cx="81.5" cy="0" r="0.1"/>
</g></g><rect stroke="none" stroke-width="1" fill="#FFFFFF" x="0" y="0" width="40" height="20" transform="translate(354.9,211.3)"/><path stroke="#000000" fill="none" d="M323,191.4 C329.2,214.5 351.3,188.3 357.5 211.3"/><text font-family="OpenSansCondensedLight" font-size="14pt" fill="black" transform="translate(354.9,211.3)" text-anchor="middle"><tspan x="20" y="16.3">122</tspan></text><rect stroke-width="0" fill="none" width="294.8" height="232.7" transform="translate(14.1,11.7)"/><text font-family="OpenSansCondensedLight" font-size="14pt" fill="black" transform="translate(14.1,11.7)" text-anchor="middle"><tspan x="147.4" y="16.8">MEMORY</tspan></text><path stroke="#000000" fill="none" transform="translate(14.1,11.7)" d="M 0 0"/></g><g transform="translate(159,590)"><g><g>
<path d="M293,0H0v33h293V0L293,0z" stroke="#000000" stroke-dasharray="none" fill="#FFFFFF"/>
<rect x="12.8" y="1.5" width="267.4" height="30" fill="none"/>
<circle fill="none" cx="146.5" cy="0" r="0.1"/>
<circle fill="none" cx="219.1" cy="0" r="0.1"/>
<circle fill="none" cx="293" cy="8.3" r="0.1"/>
<circle fill="none" cx="293" cy="16.5" r="0.1"/>
<circle fill="none" cx="293" cy="24.7" r="0.1"/>
<circle fill="none" cx="219.1" cy="33" r="0.1"/>
<circle fill="none" cx="146.5" cy="33" r="0.1"/>
<circle fill="none" cx="73.9" cy="33" r="0.1"/>
<circle fill="none" cx="0" cy="24.7" r="0.1"/>
<circle fill="none" cx="0" cy="16.5" r="0.1"/>
<circle fill="none" cx="0" cy="8.3" r="0.1"/>
<circle fill="none" cx="73.9" cy="0" r="0.1"/>
</g></g><rect stroke="none" stroke-width="1" fill="#FFFFFF" x="0" y="0" width="40" height="20" transform="translate(332.9,6.4)"/><path stroke="#000000" fill="none" d="M293,16.5 C310,33.4 315.9,-0.5 332.9 16.4"/><text font-family="OpenSansCondensedLight" font-size="14pt" fill="black" transform="translate(332.9,6.4)" text-anchor="middle"><tspan x="20" y="16.3">124</tspan></text><rect stroke-width="0" fill="none" width="267.4" height="30" transform="translate(12.8,1.5)"/><text font-family="OpenSansCondensedLight" font-size="14pt" fill="black" transform="translate(12.8,1.5)" text-anchor="middle"><tspan x="133.7" y="21.3">OPERATING SYSTEM</tspan></text><path stroke="#000000" fill="none" transform="translate(12.8,1.5)" d="M 0 0"/></g><g transform="translate(159,629)"><g><g>
<path d="M293,0H0v33h293V0L293,0z" stroke="#000000" stroke-dasharray="none" fill="#FFFFFF"/>
<rect x="12.8" y="1.5" width="267.4" height="30" fill="none"/>
<circle fill="none" cx="146.5" cy="0" r="0.1"/>
<circle fill="none" cx="219.1" cy="0" r="0.1"/>
<circle fill="none" cx="293" cy="8.3" r="0.1"/>
<circle fill="none" cx="293" cy="16.5" r="0.1"/>
<circle fill="none" cx="293" cy="24.7" r="0.1"/>
<circle fill="none" cx="219.1" cy="33" r="0.1"/>
<circle fill="none" cx="146.5" cy="33" r="0.1"/>
<circle fill="none" cx="73.9" cy="33" r="0.1"/>
<circle fill="none" cx="0" cy="24.7" r="0.1"/>
<circle fill="none" cx="0" cy="16.5" r="0.1"/>
<circle fill="none" cx="0" cy="8.3" r="0.1"/>
<circle fill="none" cx="73.9" cy="0" r="0.1"/>
</g></g><rect stroke="none" stroke-width="1" fill="#FFFFFF" x="0" y="0" width="40" height="20" transform="translate(332.9,6.4)"/><path stroke="#000000" fill="none" d="M293,16.5 C310,33.4 315.9,-0.5 332.9 16.4"/><text font-family="OpenSansCondensedLight" font-size="14pt" fill="black" transform="translate(332.9,6.4)" text-anchor="middle"><tspan x="20" y="16.3">126</tspan></text><rect stroke-width="0" fill="none" width="267.4" height="30" transform="translate(12.8,1.5)"/><text font-family="OpenSansCondensedLight" font-size="14pt" fill="black" transform="translate(12.8,1.5)" text-anchor="middle"><tspan x="133.7" y="21.3">CONTROL LOGIC</tspan></text><path stroke="#000000" fill="none" transform="translate(12.8,1.5)" d="M 0 0"/></g><g transform="translate(160,669)"><g><g>
<path d="M293,0H0v33h293V0L293,0z" stroke="#000000" stroke-dasharray="none" fill="#FFFFFF"/>
<rect x="12.8" y="1.5" width="267.4" height="30" fill="none"/>
<circle fill="none" cx="146.5" cy="0" r="0.1"/>
<circle fill="none" cx="219.1" cy="0" r="0.1"/>
<circle fill="none" cx="293" cy="8.3" r="0.1"/>
<circle fill="none" cx="293" cy="16.5" r="0.1"/>
<circle fill="none" cx="293" cy="24.7" r="0.1"/>
<circle fill="none" cx="219.1" cy="33" r="0.1"/>
<circle fill="none" cx="146.5" cy="33" r="0.1"/>
<circle fill="none" cx="73.9" cy="33" r="0.1"/>
<circle fill="none" cx="0" cy="24.7" r="0.1"/>
<circle fill="none" cx="0" cy="16.5" r="0.1"/>
<circle fill="none" cx="0" cy="8.3" r="0.1"/>
<circle fill="none" cx="73.9" cy="0" r="0.1"/>
</g></g><rect stroke="none" stroke-width="1" fill="#FFFFFF" x="0" y="0" width="40" height="20" transform="translate(332.9,6.4)"/><path stroke="#000000" fill="none" d="M293,16.5 C310,33.4 315.9,-0.5 332.9 16.4"/><text font-family="OpenSansCondensedLight" font-size="14pt" fill="black" transform="translate(332.9,6.4)" text-anchor="middle"><tspan x="20" y="16.3">128</tspan></text><rect stroke-width="0" fill="none" width="267.4" height="30" transform="translate(12.8,1.5)"/><text font-family="OpenSansCondensedLight" font-size="14pt" fill="black" transform="translate(12.8,1.5)" text-anchor="middle"><tspan x="133.7" y="21.3">OTHER APPLICATIONS</tspan></text><path stroke="#000000" fill="none" transform="translate(12.8,1.5)" d="M 0 0"/></g><g transform="translate(158,709)"><g><g>
<g stroke="#000000" stroke-dasharray="none" fill="#FFFFFF">
    <path d="M100.8,13.5H0v55c0,7.4,22.6,13.5,50.5,13.5s50.5,-6.1,50.5,-13.5v-55L100.8,13.5L100.8,13.5z"/>
    <path d="M50.5,0C22.6,0,0,6.1,0,13.5s22.6,13.5,50.5,13.5s50.5,-6.1,50.5,-13.5C100.8,6.1,78.2,0,50.5,0L50.5,0z"/>
</g>
<rect x="5.4" y="30" width="90.1" height="38.9" fill="none"/>
<circle fill="none" cx="50.5" cy="0" r="0.1"/>
<circle fill="none" cx="77" cy="2.1" r="0.1"/>
<circle fill="none" cx="101" cy="13.5" r="0.1"/>
<circle fill="none" cx="101" cy="41" r="0.1"/>
<circle fill="none" cx="101" cy="68.5" r="0.1"/>
<circle fill="none" cx="78.3" cy="79.7" r="0.1"/>
<circle fill="none" cx="50.5" cy="82" r="0.1"/>
<circle fill="none" cx="21.2" cy="79.4" r="0.1"/>
<circle fill="none" cx="0" cy="68.5" r="0.1"/>
<circle fill="none" cx="0" cy="41" r="0.1"/>
<circle fill="none" cx="0" cy="13.5" r="0.1"/>
<circle fill="none" cx="23.8" cy="2.1" r="0.1"/>
</g></g><rect stroke="none" stroke-width="1" fill="#FFFFFF" x="0" y="0" width="40" height="20" transform="translate(-80.1,30.9)"/><path stroke="#000000" fill="none" d="M0,41 C-17,24 -23.1,58 -40.1 40.9"/><text font-family="OpenSansCondensedLight" font-size="14pt" fill="black" transform="translate(-80.1,30.9)" text-anchor="middle"><tspan x="20" y="16.3">130</tspan></text><rect stroke-width="0" fill="none" width="90.1" height="38.9" transform="translate(5.4,30)"/><text font-family="OpenSansCondensedLight" font-size="14pt" fill="black" transform="translate(5.4,30)" text-anchor="middle"><tspan x="45" y="25.8">DB1</tspan></text><path stroke="#000000" fill="none" transform="translate(5.4,30)" d="M 0 0"/></g><g transform="translate(354,712)"><g><g>
<g stroke="#000000" stroke-dasharray="none" fill="#FFFFFF">
    <path d="M100.8,13.5H0v55c0,7.4,22.6,13.5,50.5,13.5s50.5,-6.1,50.5,-13.5v-55L100.8,13.5L100.8,13.5z"/>
    <path d="M50.5,0C22.6,0,0,6.1,0,13.5s22.6,13.5,50.5,13.5s50.5,-6.1,50.5,-13.5C100.8,6.1,78.2,0,50.5,0L50.5,0z"/>
</g>
<rect x="5.4" y="30" width="90.1" height="38.9" fill="none"/>
<circle fill="none" cx="50.5" cy="0" r="0.1"/>
<circle fill="none" cx="77" cy="2.1" r="0.1"/>
<circle fill="none" cx="101" cy="13.5" r="0.1"/>
<circle fill="none" cx="101" cy="41" r="0.1"/>
<circle fill="none" cx="101" cy="68.5" r="0.1"/>
<circle fill="none" cx="78.3" cy="79.7" r="0.1"/>
<circle fill="none" cx="50.5" cy="82" r="0.1"/>
<circle fill="none" cx="21.2" cy="79.4" r="0.1"/>
<circle fill="none" cx="0" cy="68.5" r="0.1"/>
<circle fill="none" cx="0" cy="41" r="0.1"/>
<circle fill="none" cx="0" cy="13.5" r="0.1"/>
<circle fill="none" cx="23.8" cy="2.1" r="0.1"/>
</g></g><rect stroke="none" stroke-width="1" fill="#FFFFFF" x="0" y="0" width="40" height="20" transform="translate(-80.1,30.9)"/><path stroke="#000000" fill="none" d="M0,41 C-17,24 -23.1,58 -40.1 40.9"/><text font-family="OpenSansCondensedLight" font-size="14pt" fill="black" transform="translate(-80.1,30.9)" text-anchor="middle"><tspan x="20" y="16.3">132</tspan></text><rect stroke-width="0" fill="none" width="90.1" height="38.9" transform="translate(5.4,30)"/><text font-family="OpenSansCondensedLight" font-size="14pt" fill="black" transform="translate(5.4,30)" text-anchor="middle"><tspan x="45" y="25.8">DB2</tspan></text><path stroke="#000000" fill="none" transform="translate(5.4,30)" d="M 0 0"/></g></g><defs/></svg>